<?xml version="1.0" encoding="UTF-8" standalone="no"?><svg xmlns="http://www.w3.org/2000/svg" xmlns:xlink="http://www.w3.org/1999/xlink" contentStyleType="text/css" height="930px" preserveAspectRatio="none" style="width:5955px;height:930px;background:#FFFFFF;" version="1.1" viewBox="0 0 5955 930" width="5955px" zoomAndPan="magnify"><defs/><g><!--MD5=[9884e166d189446fe4825863c8acf943]
class Producto--><g id="elem_Producto"><rect codeLine="2" fill="#F1F1F1" height="241.7031" id="Producto" rx="2.5" ry="2.5" style="stroke:#181818;stroke-width:0.5;" width="308" x="1332" y="397"/><ellipse cx="1453.25" cy="413" fill="#ADD1B2" rx="11" ry="11" style="stroke:#181818;stroke-width:1.0;"/><path d="M1456.0156,408.875 Q1456.1719,408.6563 1456.3594,408.5469 Q1456.5469,408.4375 1456.7656,408.4375 Q1457.1406,408.4375 1457.375,408.6953 Q1457.6094,408.9531 1457.6094,409.5625 L1457.6094,411.0156 Q1457.6094,411.625 1457.375,411.8906 Q1457.1406,412.1563 1456.7656,412.1563 Q1456.4219,412.1563 1456.2188,411.9531 Q1456.0156,411.7656 1455.9063,411.25 Q1455.8594,410.8906 1455.6719,410.7031 Q1455.3438,410.3281 1454.7344,410.1094 Q1454.125,409.8906 1453.5,409.8906 Q1452.7344,409.8906 1452.1016,410.2188 Q1451.4688,410.5469 1450.9766,411.2969 Q1450.4844,412.0469 1450.4844,413.0781 L1450.4844,414.1719 Q1450.4844,415.4063 1451.375,416.2266 Q1452.2656,417.0469 1453.8594,417.0469 Q1454.7969,417.0469 1455.4531,416.7969 Q1455.8438,416.6406 1456.2656,416.2031 Q1456.5313,415.9375 1456.6797,415.8594 Q1456.8281,415.7813 1457.0313,415.7813 Q1457.3594,415.7813 1457.6172,416.0391 Q1457.875,416.2969 1457.875,416.6406 Q1457.875,416.9844 1457.5313,417.3906 Q1457.0313,417.9688 1456.2344,418.2969 Q1455.1563,418.75 1453.8594,418.75 Q1452.3438,418.75 1451.1406,418.125 Q1450.1563,417.625 1449.4688,416.5547 Q1448.7813,415.4844 1448.7813,414.2031 L1448.7813,413.0469 Q1448.7813,411.7188 1449.3984,410.5703 Q1450.0156,409.4219 1451.1094,408.8047 Q1452.2031,408.1875 1453.4375,408.1875 Q1454.1719,408.1875 1454.8203,408.3516 Q1455.4688,408.5156 1456.0156,408.875 Z " fill="#000000"/><text fill="#000000" font-family="sans-serif" font-size="14" lengthAdjust="spacing" textLength="57" x="1473.75" y="418.7285">Producto</text><line style="stroke:#181818;stroke-width:0.5;" x1="1333" x2="1639" y1="429" y2="429"/><text fill="#000000" font-family="sans-serif" font-size="14" lengthAdjust="spacing" textLength="43" x="1338" y="447.5332">-id : int</text><text fill="#000000" font-family="sans-serif" font-size="14" lengthAdjust="spacing" textLength="102" x="1338" y="465.1426">-nombre : String</text><text fill="#000000" font-family="sans-serif" font-size="14" lengthAdjust="spacing" textLength="75" x="1338" y="482.752">-valor : float</text><line style="stroke:#181818;stroke-width:0.5;" x1="1333" x2="1639" y1="489.8281" y2="489.8281"/><text fill="#000000" font-family="sans-serif" font-size="14" lengthAdjust="spacing" textLength="296" x="1338" y="508.3613">+Producto(id : int, nombre : String, valor : float)</text><text fill="#000000" font-family="sans-serif" font-size="14" lengthAdjust="spacing" textLength="76" x="1338" y="525.9707">+getId() : int</text><text fill="#000000" font-family="sans-serif" font-size="14" lengthAdjust="spacing" textLength="124" x="1338" y="543.5801">+setId(id : int) : void</text><text fill="#000000" font-family="sans-serif" font-size="14" lengthAdjust="spacing" textLength="136" x="1338" y="561.1895">+getNombre() : String</text><text fill="#000000" font-family="sans-serif" font-size="14" lengthAdjust="spacing" textLength="221" x="1338" y="578.7988">+setNombre(nombre : String) : void</text><text fill="#000000" font-family="sans-serif" font-size="14" lengthAdjust="spacing" textLength="110" x="1338" y="596.4082">+getValor() : float</text><text fill="#000000" font-family="sans-serif" font-size="14" lengthAdjust="spacing" textLength="178" x="1338" y="614.0176">+setValor(valor : float) : void</text><text fill="#000000" font-family="sans-serif" font-size="14" lengthAdjust="spacing" textLength="116" x="1338" y="631.627">+toString() : String</text></g><!--MD5=[977ac2e203ce068cab0ceeb84e43793f]
class ProductoEntity--><g id="elem_ProductoEntity"><rect codeLine="15" fill="#F1F1F1" height="224.0938" id="ProductoEntity" rx="2.5" ry="2.5" style="stroke:#181818;stroke-width:0.5;" width="250" x="1934" y="406"/><ellipse cx="2008.75" cy="422" fill="#ADD1B2" rx="11" ry="11" style="stroke:#181818;stroke-width:1.0;"/><path d="M2011.5156,417.875 Q2011.6719,417.6563 2011.8594,417.5469 Q2012.0469,417.4375 2012.2656,417.4375 Q2012.6406,417.4375 2012.875,417.6953 Q2013.1094,417.9531 2013.1094,418.5625 L2013.1094,420.0156 Q2013.1094,420.625 2012.875,420.8906 Q2012.6406,421.1563 2012.2656,421.1563 Q2011.9219,421.1563 2011.7188,420.9531 Q2011.5156,420.7656 2011.4063,420.25 Q2011.3594,419.8906 2011.1719,419.7031 Q2010.8438,419.3281 2010.2344,419.1094 Q2009.625,418.8906 2009,418.8906 Q2008.2344,418.8906 2007.6016,419.2188 Q2006.9688,419.5469 2006.4766,420.2969 Q2005.9844,421.0469 2005.9844,422.0781 L2005.9844,423.1719 Q2005.9844,424.4063 2006.875,425.2266 Q2007.7656,426.0469 2009.3594,426.0469 Q2010.2969,426.0469 2010.9531,425.7969 Q2011.3438,425.6406 2011.7656,425.2031 Q2012.0313,424.9375 2012.1797,424.8594 Q2012.3281,424.7813 2012.5313,424.7813 Q2012.8594,424.7813 2013.1172,425.0391 Q2013.375,425.2969 2013.375,425.6406 Q2013.375,425.9844 2013.0313,426.3906 Q2012.5313,426.9688 2011.7344,427.2969 Q2010.6563,427.75 2009.3594,427.75 Q2007.8438,427.75 2006.6406,427.125 Q2005.6563,426.625 2004.9688,425.5547 Q2004.2813,424.4844 2004.2813,423.2031 L2004.2813,422.0469 Q2004.2813,420.7188 2004.8984,419.5703 Q2005.5156,418.4219 2006.6094,417.8047 Q2007.7031,417.1875 2008.9375,417.1875 Q2009.6719,417.1875 2010.3203,417.3516 Q2010.9688,417.5156 2011.5156,417.875 Z " fill="#000000"/><text fill="#000000" font-family="sans-serif" font-size="14" lengthAdjust="spacing" textLength="92" x="2029.25" y="427.7285">ProductoEntity</text><line style="stroke:#181818;stroke-width:0.5;" x1="1935" x2="2183" y1="438" y2="438"/><text fill="#000000" font-family="sans-serif" font-size="14" lengthAdjust="spacing" textLength="100" x="1940" y="456.5332">-idProducto : int</text><text fill="#000000" font-family="sans-serif" font-size="14" lengthAdjust="spacing" textLength="102" x="1940" y="474.1426">-nombre : String</text><text fill="#000000" font-family="sans-serif" font-size="14" lengthAdjust="spacing" textLength="80" x="1940" y="491.752">-valor : Float</text><line style="stroke:#181818;stroke-width:0.5;" x1="1935" x2="2183" y1="498.8281" y2="498.8281"/><text fill="#000000" font-family="sans-serif" font-size="14" lengthAdjust="spacing" textLength="110" x="1940" y="517.3613">+ProductoEntity()</text><text fill="#000000" font-family="sans-serif" font-size="14" lengthAdjust="spacing" textLength="133" x="1940" y="534.9707">+getIdProducto() : int</text><text fill="#000000" font-family="sans-serif" font-size="14" lengthAdjust="spacing" textLength="238" x="1940" y="552.5801">+setIdProducto(idProducto : int) : void</text><text fill="#000000" font-family="sans-serif" font-size="14" lengthAdjust="spacing" textLength="136" x="1940" y="570.1895">+getNombre() : String</text><text fill="#000000" font-family="sans-serif" font-size="14" lengthAdjust="spacing" textLength="221" x="1940" y="587.7988">+setNombre(nombre : String) : void</text><text fill="#000000" font-family="sans-serif" font-size="14" lengthAdjust="spacing" textLength="115" x="1940" y="605.4082">+getValor() : Float</text><text fill="#000000" font-family="sans-serif" font-size="14" lengthAdjust="spacing" textLength="183" x="1940" y="623.0176">+setValor(valor : Float) : void</text></g><!--MD5=[1a76a4ce1e1ef1d577cd19c690ecf448]
class RespuestaClienteFacturacion--><g id="elem_RespuestaClienteFacturacion"><rect codeLine="27" fill="#F1F1F1" height="118.4375" id="RespuestaClienteFacturacion" rx="2.5" ry="2.5" style="stroke:#181818;stroke-width:0.5;" width="580" x="2381" y="113"/><ellipse cx="2573.25" cy="129" fill="#ADD1B2" rx="11" ry="11" style="stroke:#181818;stroke-width:1.0;"/><path d="M2576.0156,124.875 Q2576.1719,124.6563 2576.3594,124.5469 Q2576.5469,124.4375 2576.7656,124.4375 Q2577.1406,124.4375 2577.375,124.6953 Q2577.6094,124.9531 2577.6094,125.5625 L2577.6094,127.0156 Q2577.6094,127.625 2577.375,127.8906 Q2577.1406,128.1563 2576.7656,128.1563 Q2576.4219,128.1563 2576.2188,127.9531 Q2576.0156,127.7656 2575.9063,127.25 Q2575.8594,126.8906 2575.6719,126.7031 Q2575.3438,126.3281 2574.7344,126.1094 Q2574.125,125.8906 2573.5,125.8906 Q2572.7344,125.8906 2572.1016,126.2188 Q2571.4688,126.5469 2570.9766,127.2969 Q2570.4844,128.0469 2570.4844,129.0781 L2570.4844,130.1719 Q2570.4844,131.4063 2571.375,132.2266 Q2572.2656,133.0469 2573.8594,133.0469 Q2574.7969,133.0469 2575.4531,132.7969 Q2575.8438,132.6406 2576.2656,132.2031 Q2576.5313,131.9375 2576.6797,131.8594 Q2576.8281,131.7813 2577.0313,131.7813 Q2577.3594,131.7813 2577.6172,132.0391 Q2577.875,132.2969 2577.875,132.6406 Q2577.875,132.9844 2577.5313,133.3906 Q2577.0313,133.9688 2576.2344,134.2969 Q2575.1563,134.75 2573.8594,134.75 Q2572.3438,134.75 2571.1406,134.125 Q2570.1563,133.625 2569.4688,132.5547 Q2568.7813,131.4844 2568.7813,130.2031 L2568.7813,129.0469 Q2568.7813,127.7188 2569.3984,126.5703 Q2570.0156,125.4219 2571.1094,124.8047 Q2572.2031,124.1875 2573.4375,124.1875 Q2574.1719,124.1875 2574.8203,124.3516 Q2575.4688,124.5156 2576.0156,124.875 Z " fill="#000000"/><text fill="#000000" font-family="sans-serif" font-size="14" lengthAdjust="spacing" textLength="187" x="2593.75" y="134.7285">RespuestaClienteFacturacion</text><line style="stroke:#181818;stroke-width:0.5;" x1="2382" x2="2960" y1="145" y2="145"/><text fill="#000000" font-family="sans-serif" font-size="14" lengthAdjust="spacing" textLength="122" x="2387" y="163.5332">-recaudacion : float</text><line style="stroke:#181818;stroke-width:0.5;" x1="2382" x2="2960" y1="170.6094" y2="170.6094"/><text fill="#000000" font-family="sans-serif" font-size="14" lengthAdjust="spacing" textLength="568" x="2387" y="189.1426">+RespuestaClienteFacturacion(id : int, nombre : String, email : String, recaudacion : Float)</text><text fill="#000000" font-family="sans-serif" font-size="14" lengthAdjust="spacing" textLength="160" x="2387" y="206.752">+getRecaudacion() : float</text><text fill="#000000" font-family="sans-serif" font-size="14" lengthAdjust="spacing" textLength="275" x="2387" y="224.3613">+setRecaudacion(recaudacion : float) : void</text></g><!--MD5=[20a748d5ee336a9a91751b0a3d4f0beb]
class Cliente--><g id="elem_Cliente"><rect codeLine="96" fill="#F1F1F1" height="224.0938" id="Cliente" rx="2.5" ry="2.5" style="stroke:#181818;stroke-width:0.5;" width="307" x="2517.5" y="406"/><ellipse cx="2644.75" cy="422" fill="#ADD1B2" rx="11" ry="11" style="stroke:#181818;stroke-width:1.0;"/><path d="M2647.5156,417.875 Q2647.6719,417.6563 2647.8594,417.5469 Q2648.0469,417.4375 2648.2656,417.4375 Q2648.6406,417.4375 2648.875,417.6953 Q2649.1094,417.9531 2649.1094,418.5625 L2649.1094,420.0156 Q2649.1094,420.625 2648.875,420.8906 Q2648.6406,421.1563 2648.2656,421.1563 Q2647.9219,421.1563 2647.7188,420.9531 Q2647.5156,420.7656 2647.4063,420.25 Q2647.3594,419.8906 2647.1719,419.7031 Q2646.8438,419.3281 2646.2344,419.1094 Q2645.625,418.8906 2645,418.8906 Q2644.2344,418.8906 2643.6016,419.2188 Q2642.9688,419.5469 2642.4766,420.2969 Q2641.9844,421.0469 2641.9844,422.0781 L2641.9844,423.1719 Q2641.9844,424.4063 2642.875,425.2266 Q2643.7656,426.0469 2645.3594,426.0469 Q2646.2969,426.0469 2646.9531,425.7969 Q2647.3438,425.6406 2647.7656,425.2031 Q2648.0313,424.9375 2648.1797,424.8594 Q2648.3281,424.7813 2648.5313,424.7813 Q2648.8594,424.7813 2649.1172,425.0391 Q2649.375,425.2969 2649.375,425.6406 Q2649.375,425.9844 2649.0313,426.3906 Q2648.5313,426.9688 2647.7344,427.2969 Q2646.6563,427.75 2645.3594,427.75 Q2643.8438,427.75 2642.6406,427.125 Q2641.6563,426.625 2640.9688,425.5547 Q2640.2813,424.4844 2640.2813,423.2031 L2640.2813,422.0469 Q2640.2813,420.7188 2640.8984,419.5703 Q2641.5156,418.4219 2642.6094,417.8047 Q2643.7031,417.1875 2644.9375,417.1875 Q2645.6719,417.1875 2646.3203,417.3516 Q2646.9688,417.5156 2647.5156,417.875 Z " fill="#000000"/><text fill="#000000" font-family="sans-serif" font-size="14" lengthAdjust="spacing" textLength="44" x="2665.25" y="427.7285">Cliente</text><line style="stroke:#181818;stroke-width:0.5;" x1="2518.5" x2="2823.5" y1="438" y2="438"/><text fill="#000000" font-family="sans-serif" font-size="14" lengthAdjust="spacing" textLength="43" x="2523.5" y="456.5332">-id : int</text><text fill="#000000" font-family="sans-serif" font-size="14" lengthAdjust="spacing" textLength="102" x="2523.5" y="474.1426">-nombre : String</text><text fill="#000000" font-family="sans-serif" font-size="14" lengthAdjust="spacing" textLength="87" x="2523.5" y="491.752">-email : String</text><line style="stroke:#181818;stroke-width:0.5;" x1="2518.5" x2="2823.5" y1="498.8281" y2="498.8281"/><text fill="#000000" font-family="sans-serif" font-size="14" lengthAdjust="spacing" textLength="295" x="2523.5" y="517.3613">+Cliente(id : int, nombre : String, email : String)</text><text fill="#000000" font-family="sans-serif" font-size="14" lengthAdjust="spacing" textLength="76" x="2523.5" y="534.9707">+getId() : int</text><text fill="#000000" font-family="sans-serif" font-size="14" lengthAdjust="spacing" textLength="124" x="2523.5" y="552.5801">+setId(id : int) : void</text><text fill="#000000" font-family="sans-serif" font-size="14" lengthAdjust="spacing" textLength="136" x="2523.5" y="570.1895">+getNombre() : String</text><text fill="#000000" font-family="sans-serif" font-size="14" lengthAdjust="spacing" textLength="221" x="2523.5" y="587.7988">+setNombre(nombre : String) : void</text><text fill="#000000" font-family="sans-serif" font-size="14" lengthAdjust="spacing" textLength="121" x="2523.5" y="605.4082">+getEmail() : String</text><text fill="#000000" font-family="sans-serif" font-size="14" lengthAdjust="spacing" textLength="191" x="2523.5" y="623.0176">+setEmail(email : String) : void</text></g><!--MD5=[cbbd394bb26b92394752a59e647fc9f7]
class FacturaMapper--><g id="elem_FacturaMapper"><rect codeLine="34" fill="#F1F1F1" height="100.8281" id="FacturaMapper" rx="2.5" ry="2.5" style="stroke:#181818;stroke-width:0.5;" width="344" x="7" y="121.5"/><ellipse cx="126.25" cy="137.5" fill="#ADD1B2" rx="11" ry="11" style="stroke:#181818;stroke-width:1.0;"/><path d="M129.0156,133.375 Q129.1719,133.1563 129.3594,133.0469 Q129.5469,132.9375 129.7656,132.9375 Q130.1406,132.9375 130.375,133.1953 Q130.6094,133.4531 130.6094,134.0625 L130.6094,135.5156 Q130.6094,136.125 130.375,136.3906 Q130.1406,136.6563 129.7656,136.6563 Q129.4219,136.6563 129.2188,136.4531 Q129.0156,136.2656 128.9063,135.75 Q128.8594,135.3906 128.6719,135.2031 Q128.3438,134.8281 127.7344,134.6094 Q127.125,134.3906 126.5,134.3906 Q125.7344,134.3906 125.1016,134.7188 Q124.4688,135.0469 123.9766,135.7969 Q123.4844,136.5469 123.4844,137.5781 L123.4844,138.6719 Q123.4844,139.9063 124.375,140.7266 Q125.2656,141.5469 126.8594,141.5469 Q127.7969,141.5469 128.4531,141.2969 Q128.8438,141.1406 129.2656,140.7031 Q129.5313,140.4375 129.6797,140.3594 Q129.8281,140.2813 130.0313,140.2813 Q130.3594,140.2813 130.6172,140.5391 Q130.875,140.7969 130.875,141.1406 Q130.875,141.4844 130.5313,141.8906 Q130.0313,142.4688 129.2344,142.7969 Q128.1563,143.25 126.8594,143.25 Q125.3438,143.25 124.1406,142.625 Q123.1563,142.125 122.4688,141.0547 Q121.7813,139.9844 121.7813,138.7031 L121.7813,137.5469 Q121.7813,136.2188 122.3984,135.0703 Q123.0156,133.9219 124.1094,133.3047 Q125.2031,132.6875 126.4375,132.6875 Q127.1719,132.6875 127.8203,132.8516 Q128.4688,133.0156 129.0156,133.375 Z " fill="#000000"/><text fill="#000000" font-family="sans-serif" font-size="14" lengthAdjust="spacing" textLength="97" x="146.75" y="143.2285">FacturaMapper</text><line style="stroke:#181818;stroke-width:0.5;" x1="8" x2="350" y1="153.5" y2="153.5"/><line style="stroke:#181818;stroke-width:0.5;" x1="8" x2="350" y1="161.5" y2="161.5"/><text fill="#000000" font-family="sans-serif" font-size="14" lengthAdjust="spacing" textLength="115" x="13" y="180.0332">+FacturaMapper()</text><text fill="#000000" font-family="sans-serif" font-size="14" lengthAdjust="spacing" text-decoration="underline" textLength="285" x="13" y="197.6426">+mapFactura(entity : FacturaEntity) : Factura</text><text fill="#000000" font-family="sans-serif" font-size="14" lengthAdjust="spacing" text-decoration="underline" textLength="332" x="13" y="215.252">+mapFacturaEntity(modelo : Factura) : FacturaEntity</text></g><!--MD5=[837d3612090b426002fd1342fcbe6b88]
class DataBase--><g id="elem_DataBase"><rect codeLine="39" fill="#F1F1F1" height="48" id="DataBase" rx="2.5" ry="2.5" style="stroke:#181818;stroke-width:0.5;" width="94" x="386" y="148"/><ellipse cx="401" cy="164" fill="#ADD1B2" rx="11" ry="11" style="stroke:#181818;stroke-width:1.0;"/><path d="M403.7656,159.875 Q403.9219,159.6563 404.1094,159.5469 Q404.2969,159.4375 404.5156,159.4375 Q404.8906,159.4375 405.125,159.6953 Q405.3594,159.9531 405.3594,160.5625 L405.3594,162.0156 Q405.3594,162.625 405.125,162.8906 Q404.8906,163.1563 404.5156,163.1563 Q404.1719,163.1563 403.9688,162.9531 Q403.7656,162.7656 403.6563,162.25 Q403.6094,161.8906 403.4219,161.7031 Q403.0938,161.3281 402.4844,161.1094 Q401.875,160.8906 401.25,160.8906 Q400.4844,160.8906 399.8516,161.2188 Q399.2188,161.5469 398.7266,162.2969 Q398.2344,163.0469 398.2344,164.0781 L398.2344,165.1719 Q398.2344,166.4063 399.125,167.2266 Q400.0156,168.0469 401.6094,168.0469 Q402.5469,168.0469 403.2031,167.7969 Q403.5938,167.6406 404.0156,167.2031 Q404.2813,166.9375 404.4297,166.8594 Q404.5781,166.7813 404.7813,166.7813 Q405.1094,166.7813 405.3672,167.0391 Q405.625,167.2969 405.625,167.6406 Q405.625,167.9844 405.2813,168.3906 Q404.7813,168.9688 403.9844,169.2969 Q402.9063,169.75 401.6094,169.75 Q400.0938,169.75 398.8906,169.125 Q397.9063,168.625 397.2188,167.5547 Q396.5313,166.4844 396.5313,165.2031 L396.5313,164.0469 Q396.5313,162.7188 397.1484,161.5703 Q397.7656,160.4219 398.8594,159.8047 Q399.9531,159.1875 401.1875,159.1875 Q401.9219,159.1875 402.5703,159.3516 Q403.2188,159.5156 403.7656,159.875 Z " fill="#000000"/><text fill="#000000" font-family="sans-serif" font-size="14" lengthAdjust="spacing" textLength="62" x="415" y="169.7285">DataBase</text><line style="stroke:#181818;stroke-width:0.5;" x1="387" x2="479" y1="180" y2="180"/><line style="stroke:#181818;stroke-width:0.5;" x1="387" x2="479" y1="188" y2="188"/></g><!--MD5=[4520fda4e10d4d791ce48fe025810cd4]
class main--><g id="elem_main"><rect codeLine="41" fill="#F1F1F1" height="65.6094" id="main" rx="2.5" ry="2.5" style="stroke:#181818;stroke-width:0.5;" width="183" x="515.5" y="139"/><ellipse cx="587.75" cy="155" fill="#ADD1B2" rx="11" ry="11" style="stroke:#181818;stroke-width:1.0;"/><path d="M590.5156,150.875 Q590.6719,150.6563 590.8594,150.5469 Q591.0469,150.4375 591.2656,150.4375 Q591.6406,150.4375 591.875,150.6953 Q592.1094,150.9531 592.1094,151.5625 L592.1094,153.0156 Q592.1094,153.625 591.875,153.8906 Q591.6406,154.1563 591.2656,154.1563 Q590.9219,154.1563 590.7188,153.9531 Q590.5156,153.7656 590.4063,153.25 Q590.3594,152.8906 590.1719,152.7031 Q589.8438,152.3281 589.2344,152.1094 Q588.625,151.8906 588,151.8906 Q587.2344,151.8906 586.6016,152.2188 Q585.9688,152.5469 585.4766,153.2969 Q584.9844,154.0469 584.9844,155.0781 L584.9844,156.1719 Q584.9844,157.4063 585.875,158.2266 Q586.7656,159.0469 588.3594,159.0469 Q589.2969,159.0469 589.9531,158.7969 Q590.3438,158.6406 590.7656,158.2031 Q591.0313,157.9375 591.1797,157.8594 Q591.3281,157.7813 591.5313,157.7813 Q591.8594,157.7813 592.1172,158.0391 Q592.375,158.2969 592.375,158.6406 Q592.375,158.9844 592.0313,159.3906 Q591.5313,159.9688 590.7344,160.2969 Q589.6563,160.75 588.3594,160.75 Q586.8438,160.75 585.6406,160.125 Q584.6563,159.625 583.9688,158.5547 Q583.2813,157.4844 583.2813,156.2031 L583.2813,155.0469 Q583.2813,153.7188 583.8984,152.5703 Q584.5156,151.4219 585.6094,150.8047 Q586.7031,150.1875 587.9375,150.1875 Q588.6719,150.1875 589.3203,150.3516 Q589.9688,150.5156 590.5156,150.875 Z " fill="#000000"/><text fill="#000000" font-family="sans-serif" font-size="14" lengthAdjust="spacing" textLength="30" x="608.25" y="160.7285">main</text><line style="stroke:#181818;stroke-width:0.5;" x1="516.5" x2="697.5" y1="171" y2="171"/><line style="stroke:#181818;stroke-width:0.5;" x1="516.5" x2="697.5" y1="179" y2="179"/><text fill="#000000" font-family="sans-serif" font-size="14" lengthAdjust="spacing" text-decoration="underline" textLength="171" x="521.5" y="197.5332">+main(args : String[]) : void</text></g><!--MD5=[76f718d2e406716f0762fab241a5ee38]
class ClienteMapper--><g id="elem_ClienteMapper"><rect codeLine="44" fill="#F1F1F1" height="100.8281" id="ClienteMapper" rx="2.5" ry="2.5" style="stroke:#181818;stroke-width:0.5;" width="329" x="14.5" y="467.5"/><ellipse cx="128.75" cy="483.5" fill="#ADD1B2" rx="11" ry="11" style="stroke:#181818;stroke-width:1.0;"/><path d="M131.5156,479.375 Q131.6719,479.1563 131.8594,479.0469 Q132.0469,478.9375 132.2656,478.9375 Q132.6406,478.9375 132.875,479.1953 Q133.1094,479.4531 133.1094,480.0625 L133.1094,481.5156 Q133.1094,482.125 132.875,482.3906 Q132.6406,482.6563 132.2656,482.6563 Q131.9219,482.6563 131.7188,482.4531 Q131.5156,482.2656 131.4063,481.75 Q131.3594,481.3906 131.1719,481.2031 Q130.8438,480.8281 130.2344,480.6094 Q129.625,480.3906 129,480.3906 Q128.2344,480.3906 127.6016,480.7188 Q126.9688,481.0469 126.4766,481.7969 Q125.9844,482.5469 125.9844,483.5781 L125.9844,484.6719 Q125.9844,485.9063 126.875,486.7266 Q127.7656,487.5469 129.3594,487.5469 Q130.2969,487.5469 130.9531,487.2969 Q131.3438,487.1406 131.7656,486.7031 Q132.0313,486.4375 132.1797,486.3594 Q132.3281,486.2813 132.5313,486.2813 Q132.8594,486.2813 133.1172,486.5391 Q133.375,486.7969 133.375,487.1406 Q133.375,487.4844 133.0313,487.8906 Q132.5313,488.4688 131.7344,488.7969 Q130.6563,489.25 129.3594,489.25 Q127.8438,489.25 126.6406,488.625 Q125.6563,488.125 124.9688,487.0547 Q124.2813,485.9844 124.2813,484.7031 L124.2813,483.5469 Q124.2813,482.2188 124.8984,481.0703 Q125.5156,479.9219 126.6094,479.3047 Q127.7031,478.6875 128.9375,478.6875 Q129.6719,478.6875 130.3203,478.8516 Q130.9688,479.0156 131.5156,479.375 Z " fill="#000000"/><text fill="#000000" font-family="sans-serif" font-size="14" lengthAdjust="spacing" textLength="92" x="149.25" y="489.2285">ClienteMapper</text><line style="stroke:#181818;stroke-width:0.5;" x1="15.5" x2="342.5" y1="499.5" y2="499.5"/><line style="stroke:#181818;stroke-width:0.5;" x1="15.5" x2="342.5" y1="507.5" y2="507.5"/><text fill="#000000" font-family="sans-serif" font-size="14" lengthAdjust="spacing" textLength="110" x="20.5" y="526.0332">+ClienteMapper()</text><text fill="#000000" font-family="sans-serif" font-size="14" lengthAdjust="spacing" text-decoration="underline" textLength="270" x="20.5" y="543.6426">+mapCliente(entity : ClienteEntity) : Cliente</text><text fill="#000000" font-family="sans-serif" font-size="14" lengthAdjust="spacing" text-decoration="underline" textLength="317" x="20.5" y="561.252">+mapClienteEntity(modelo : Cliente) : ClienteEntity</text></g><!--MD5=[11f1e5f8f67f16373072012421dae4f0]
class ProductoFactura--><g id="elem_ProductoFactura"><rect codeLine="49" fill="#F1F1F1" height="224.0938" id="ProductoFactura" rx="2.5" ry="2.5" style="stroke:#181818;stroke-width:0.5;" width="463" x="1331.5" y="60"/><ellipse cx="1505.75" cy="76" fill="#ADD1B2" rx="11" ry="11" style="stroke:#181818;stroke-width:1.0;"/><path d="M1508.5156,71.875 Q1508.6719,71.6563 1508.8594,71.5469 Q1509.0469,71.4375 1509.2656,71.4375 Q1509.6406,71.4375 1509.875,71.6953 Q1510.1094,71.9531 1510.1094,72.5625 L1510.1094,74.0156 Q1510.1094,74.625 1509.875,74.8906 Q1509.6406,75.1563 1509.2656,75.1563 Q1508.9219,75.1563 1508.7188,74.9531 Q1508.5156,74.7656 1508.4063,74.25 Q1508.3594,73.8906 1508.1719,73.7031 Q1507.8438,73.3281 1507.2344,73.1094 Q1506.625,72.8906 1506,72.8906 Q1505.2344,72.8906 1504.6016,73.2188 Q1503.9688,73.5469 1503.4766,74.2969 Q1502.9844,75.0469 1502.9844,76.0781 L1502.9844,77.1719 Q1502.9844,78.4063 1503.875,79.2266 Q1504.7656,80.0469 1506.3594,80.0469 Q1507.2969,80.0469 1507.9531,79.7969 Q1508.3438,79.6406 1508.7656,79.2031 Q1509.0313,78.9375 1509.1797,78.8594 Q1509.3281,78.7813 1509.5313,78.7813 Q1509.8594,78.7813 1510.1172,79.0391 Q1510.375,79.2969 1510.375,79.6406 Q1510.375,79.9844 1510.0313,80.3906 Q1509.5313,80.9688 1508.7344,81.2969 Q1507.6563,81.75 1506.3594,81.75 Q1504.8438,81.75 1503.6406,81.125 Q1502.6563,80.625 1501.9688,79.5547 Q1501.2813,78.4844 1501.2813,77.2031 L1501.2813,76.0469 Q1501.2813,74.7188 1501.8984,73.5703 Q1502.5156,72.4219 1503.6094,71.8047 Q1504.7031,71.1875 1505.9375,71.1875 Q1506.6719,71.1875 1507.3203,71.3516 Q1507.9688,71.5156 1508.5156,71.875 Z " fill="#000000"/><text fill="#000000" font-family="sans-serif" font-size="14" lengthAdjust="spacing" textLength="106" x="1526.25" y="81.7285">ProductoFactura</text><line style="stroke:#181818;stroke-width:0.5;" x1="1332.5" x2="1793.5" y1="92" y2="92"/><text fill="#000000" font-family="sans-serif" font-size="14" lengthAdjust="spacing" textLength="86" x="1337.5" y="110.5332">-cantidad : int</text><text fill="#000000" font-family="sans-serif" font-size="14" lengthAdjust="spacing" textLength="130" x="1337.5" y="128.1426">-producto : Producto</text><text fill="#000000" font-family="sans-serif" font-size="14" lengthAdjust="spacing" textLength="110" x="1337.5" y="145.752">-factura : Factura</text><line style="stroke:#181818;stroke-width:0.5;" x1="1332.5" x2="1793.5" y1="152.8281" y2="152.8281"/><text fill="#000000" font-family="sans-serif" font-size="14" lengthAdjust="spacing" textLength="451" x="1337.5" y="171.3613">+ProductoFactura(cantidad : int, producto : Producto, factura : Factura)</text><text fill="#000000" font-family="sans-serif" font-size="14" lengthAdjust="spacing" textLength="122" x="1337.5" y="188.9707">+getCantidad() : int</text><text fill="#000000" font-family="sans-serif" font-size="14" lengthAdjust="spacing" textLength="213" x="1337.5" y="206.5801">+setCantidad(cantidad : int) : void</text><text fill="#000000" font-family="sans-serif" font-size="14" lengthAdjust="spacing" textLength="164" x="1337.5" y="224.1895">+getProducto() : Producto</text><text fill="#000000" font-family="sans-serif" font-size="14" lengthAdjust="spacing" textLength="257" x="1337.5" y="241.7988">+setProducto(producto : Producto) : void</text><text fill="#000000" font-family="sans-serif" font-size="14" lengthAdjust="spacing" textLength="148" x="1337.5" y="259.4082">+getFactura() : Factura</text><text fill="#000000" font-family="sans-serif" font-size="14" lengthAdjust="spacing" textLength="229" x="1337.5" y="277.0176">+setFactura(factura : Factura) : void</text></g><!--MD5=[ec81ab65534c7125bdad14bed61d0c7f]
class ProductoDao--><g id="elem_ProductoDao"><rect codeLine="61" fill="#F1F1F1" height="188.875" id="ProductoDao" rx="2.5" ry="2.5" style="stroke:#181818;stroke-width:0.5;" width="448" x="2996" y="77.5"/><ellipse cx="3174.25" cy="93.5" fill="#ADD1B2" rx="11" ry="11" style="stroke:#181818;stroke-width:1.0;"/><path d="M3177.0156,89.375 Q3177.1719,89.1563 3177.3594,89.0469 Q3177.5469,88.9375 3177.7656,88.9375 Q3178.1406,88.9375 3178.375,89.1953 Q3178.6094,89.4531 3178.6094,90.0625 L3178.6094,91.5156 Q3178.6094,92.125 3178.375,92.3906 Q3178.1406,92.6563 3177.7656,92.6563 Q3177.4219,92.6563 3177.2188,92.4531 Q3177.0156,92.2656 3176.9063,91.75 Q3176.8594,91.3906 3176.6719,91.2031 Q3176.3438,90.8281 3175.7344,90.6094 Q3175.125,90.3906 3174.5,90.3906 Q3173.7344,90.3906 3173.1016,90.7188 Q3172.4688,91.0469 3171.9766,91.7969 Q3171.4844,92.5469 3171.4844,93.5781 L3171.4844,94.6719 Q3171.4844,95.9063 3172.375,96.7266 Q3173.2656,97.5469 3174.8594,97.5469 Q3175.7969,97.5469 3176.4531,97.2969 Q3176.8438,97.1406 3177.2656,96.7031 Q3177.5313,96.4375 3177.6797,96.3594 Q3177.8281,96.2813 3178.0313,96.2813 Q3178.3594,96.2813 3178.6172,96.5391 Q3178.875,96.7969 3178.875,97.1406 Q3178.875,97.4844 3178.5313,97.8906 Q3178.0313,98.4688 3177.2344,98.7969 Q3176.1563,99.25 3174.8594,99.25 Q3173.3438,99.25 3172.1406,98.625 Q3171.1563,98.125 3170.4688,97.0547 Q3169.7813,95.9844 3169.7813,94.7031 L3169.7813,93.5469 Q3169.7813,92.2188 3170.3984,91.0703 Q3171.0156,89.9219 3172.1094,89.3047 Q3173.2031,88.6875 3174.4375,88.6875 Q3175.1719,88.6875 3175.8203,88.8516 Q3176.4688,89.0156 3177.0156,89.375 Z " fill="#000000"/><text fill="#000000" font-family="sans-serif" font-size="14" lengthAdjust="spacing" textLength="83" x="3194.75" y="99.2285">ProductoDao</text><line style="stroke:#181818;stroke-width:0.5;" x1="2997" x2="3443" y1="109.5" y2="109.5"/><line style="stroke:#181818;stroke-width:0.5;" x1="2997" x2="3443" y1="117.5" y2="117.5"/><text fill="#000000" font-family="sans-serif" font-size="14" lengthAdjust="spacing" textLength="132" x="3002" y="136.0332">+createTable() : void</text><text fill="#000000" font-family="sans-serif" font-size="14" lengthAdjust="spacing" textLength="202" x="3002" y="153.6426">+getProducto(id : int) : Producto</text><text fill="#000000" font-family="sans-serif" font-size="14" lengthAdjust="spacing" textLength="243" x="3002" y="171.252">+getProductos() : ArrayList&lt;Producto&gt;</text><text fill="#000000" font-family="sans-serif" font-size="14" lengthAdjust="spacing" textLength="436" x="3002" y="188.8613">+createProducts(productosACrear : List&lt;Producto&gt;) : List&lt;Producto&gt;</text><text fill="#000000" font-family="sans-serif" font-size="14" lengthAdjust="spacing" textLength="301" x="3002" y="206.4707">+createProduct(producto : Producto) : Producto</text><text fill="#000000" font-family="sans-serif" font-size="14" lengthAdjust="spacing" textLength="305" x="3002" y="224.0801">+updateProduct(producto : Producto) : Producto</text><text fill="#000000" font-family="sans-serif" font-size="14" lengthAdjust="spacing" textLength="286" x="3002" y="241.6895">+getProductoMayorRecaudacion() : Producto</text><text fill="#000000" font-family="sans-serif" font-size="14" lengthAdjust="spacing" textLength="421" x="3002" y="259.2988">-createProduct(producto : Producto, conn : Connection) : Producto</text></g><!--MD5=[19e0982b14d870032e5e3b49e225cd62]
class IProductoDao--><g id="elem_IProductoDao"><rect codeLine="224" fill="#F1F1F1" height="171.2656" id="IProductoDao" rx="2.5" ry="2.5" style="stroke:#181818;stroke-width:0.5;" width="448" x="2996" y="432.5"/><ellipse cx="3172.25" cy="448.5" fill="#B4A7E5" rx="11" ry="11" style="stroke:#181818;stroke-width:1.0;"/><path d="M3173.2031,445.1406 L3173.2031,451.7969 L3174.9219,451.7969 Q3175.5313,451.7969 3175.7969,452.0313 Q3176.0625,452.2656 3176.0625,452.6563 Q3176.0625,453.0313 3175.7969,453.2656 Q3175.5313,453.5 3174.9219,453.5 L3169.7813,453.5 Q3169.1719,453.5 3168.9063,453.2656 Q3168.6406,453.0313 3168.6406,452.6406 Q3168.6406,452.2656 3168.9063,452.0313 Q3169.1719,451.7969 3169.7813,451.7969 L3171.5,451.7969 L3171.5,445.1406 L3169.7813,445.1406 Q3169.1719,445.1406 3168.9063,444.9063 Q3168.6406,444.6719 3168.6406,444.2813 Q3168.6406,443.9063 3168.9063,443.6719 Q3169.1719,443.4375 3169.7813,443.4375 L3174.9219,443.4375 Q3175.5313,443.4375 3175.7969,443.6719 Q3176.0625,443.9063 3176.0625,444.2813 Q3176.0625,444.6719 3175.7969,444.9063 Q3175.5313,445.1406 3174.9219,445.1406 L3173.2031,445.1406 Z " fill="#000000"/><text fill="#000000" font-family="sans-serif" font-size="14" font-style="italic" lengthAdjust="spacing" textLength="87" x="3192.75" y="454.2285">IProductoDao</text><line style="stroke:#181818;stroke-width:0.5;" x1="2997" x2="3443" y1="464.5" y2="464.5"/><line style="stroke:#181818;stroke-width:0.5;" x1="2997" x2="3443" y1="472.5" y2="472.5"/><text fill="#000000" font-family="sans-serif" font-size="14" lengthAdjust="spacing" textLength="132" x="3002" y="491.0332">+createTable() : void</text><text fill="#000000" font-family="sans-serif" font-size="14" lengthAdjust="spacing" textLength="202" x="3002" y="508.6426">+getProducto(id : int) : Producto</text><text fill="#000000" font-family="sans-serif" font-size="14" lengthAdjust="spacing" textLength="243" x="3002" y="526.252">+getProductos() : ArrayList&lt;Producto&gt;</text><text fill="#000000" font-family="sans-serif" font-size="14" lengthAdjust="spacing" textLength="301" x="3002" y="543.8613">+createProduct(producto : Producto) : Producto</text><text fill="#000000" font-family="sans-serif" font-size="14" lengthAdjust="spacing" textLength="436" x="3002" y="561.4707">+createProducts(productosACrear : List&lt;Producto&gt;) : List&lt;Producto&gt;</text><text fill="#000000" font-family="sans-serif" font-size="14" lengthAdjust="spacing" textLength="305" x="3002" y="579.0801">+updateProduct(producto : Producto) : Producto</text><text fill="#000000" font-family="sans-serif" font-size="14" lengthAdjust="spacing" textLength="286" x="3002" y="596.6895">+getProductoMayorRecaudacion() : Producto</text></g><!--MD5=[858d9697e5d9c6100e6e223307a0da60]
class FacturaProductoMapper--><g id="elem_FacturaProductoMapper"><rect codeLine="72" fill="#F1F1F1" height="100.8281" id="FacturaProductoMapper" rx="2.5" ry="2.5" style="stroke:#181818;stroke-width:0.5;" width="515" x="378.5" y="467.5"/><ellipse cx="554.75" cy="483.5" fill="#ADD1B2" rx="11" ry="11" style="stroke:#181818;stroke-width:1.0;"/><path d="M557.5156,479.375 Q557.6719,479.1563 557.8594,479.0469 Q558.0469,478.9375 558.2656,478.9375 Q558.6406,478.9375 558.875,479.1953 Q559.1094,479.4531 559.1094,480.0625 L559.1094,481.5156 Q559.1094,482.125 558.875,482.3906 Q558.6406,482.6563 558.2656,482.6563 Q557.9219,482.6563 557.7188,482.4531 Q557.5156,482.2656 557.4063,481.75 Q557.3594,481.3906 557.1719,481.2031 Q556.8438,480.8281 556.2344,480.6094 Q555.625,480.3906 555,480.3906 Q554.2344,480.3906 553.6016,480.7188 Q552.9688,481.0469 552.4766,481.7969 Q551.9844,482.5469 551.9844,483.5781 L551.9844,484.6719 Q551.9844,485.9063 552.875,486.7266 Q553.7656,487.5469 555.3594,487.5469 Q556.2969,487.5469 556.9531,487.2969 Q557.3438,487.1406 557.7656,486.7031 Q558.0313,486.4375 558.1797,486.3594 Q558.3281,486.2813 558.5313,486.2813 Q558.8594,486.2813 559.1172,486.5391 Q559.375,486.7969 559.375,487.1406 Q559.375,487.4844 559.0313,487.8906 Q558.5313,488.4688 557.7344,488.7969 Q556.6563,489.25 555.3594,489.25 Q553.8438,489.25 552.6406,488.625 Q551.6563,488.125 550.9688,487.0547 Q550.2813,485.9844 550.2813,484.7031 L550.2813,483.5469 Q550.2813,482.2188 550.8984,481.0703 Q551.5156,479.9219 552.6094,479.3047 Q553.7031,478.6875 554.9375,478.6875 Q555.6719,478.6875 556.3203,478.8516 Q556.9688,479.0156 557.5156,479.375 Z " fill="#000000"/><text fill="#000000" font-family="sans-serif" font-size="14" lengthAdjust="spacing" textLength="154" x="575.25" y="489.2285">FacturaProductoMapper</text><line style="stroke:#181818;stroke-width:0.5;" x1="379.5" x2="892.5" y1="499.5" y2="499.5"/><line style="stroke:#181818;stroke-width:0.5;" x1="379.5" x2="892.5" y1="507.5" y2="507.5"/><text fill="#000000" font-family="sans-serif" font-size="14" lengthAdjust="spacing" textLength="172" x="384.5" y="526.0332">+FacturaProductoMapper()</text><text fill="#000000" font-family="sans-serif" font-size="14" lengthAdjust="spacing" text-decoration="underline" textLength="456" x="384.5" y="543.6426">+mapProductoFactura(entity : FacturaProductoEntity) : ProductoFactura</text><text fill="#000000" font-family="sans-serif" font-size="14" lengthAdjust="spacing" text-decoration="underline" textLength="503" x="384.5" y="561.252">+mapProductoFacturaEntity(modelo : ProductoFactura) : FacturaProductoEntity</text></g><!--MD5=[5488d4c56479f86bd2042ceffc6a2b1c]
class MySqlDao--><g id="elem_MySqlDao"><rect codeLine="77" fill="#F1F1F1" height="329.75" id="MySqlDao" rx="2.5" ry="2.5" style="stroke:#181818;stroke-width:0.5;" width="326" x="3486" y="7"/><ellipse cx="3612.75" cy="23" fill="#ADD1B2" rx="11" ry="11" style="stroke:#181818;stroke-width:1.0;"/><path d="M3615.5156,18.875 Q3615.6719,18.6563 3615.8594,18.5469 Q3616.0469,18.4375 3616.2656,18.4375 Q3616.6406,18.4375 3616.875,18.6953 Q3617.1094,18.9531 3617.1094,19.5625 L3617.1094,21.0156 Q3617.1094,21.625 3616.875,21.8906 Q3616.6406,22.1563 3616.2656,22.1563 Q3615.9219,22.1563 3615.7188,21.9531 Q3615.5156,21.7656 3615.4063,21.25 Q3615.3594,20.8906 3615.1719,20.7031 Q3614.8438,20.3281 3614.2344,20.1094 Q3613.625,19.8906 3613,19.8906 Q3612.2344,19.8906 3611.6016,20.2188 Q3610.9688,20.5469 3610.4766,21.2969 Q3609.9844,22.0469 3609.9844,23.0781 L3609.9844,24.1719 Q3609.9844,25.4063 3610.875,26.2266 Q3611.7656,27.0469 3613.3594,27.0469 Q3614.2969,27.0469 3614.9531,26.7969 Q3615.3438,26.6406 3615.7656,26.2031 Q3616.0313,25.9375 3616.1797,25.8594 Q3616.3281,25.7813 3616.5313,25.7813 Q3616.8594,25.7813 3617.1172,26.0391 Q3617.375,26.2969 3617.375,26.6406 Q3617.375,26.9844 3617.0313,27.3906 Q3616.5313,27.9688 3615.7344,28.2969 Q3614.6563,28.75 3613.3594,28.75 Q3611.8438,28.75 3610.6406,28.125 Q3609.6563,27.625 3608.9688,26.5547 Q3608.2813,25.4844 3608.2813,24.2031 L3608.2813,23.0469 Q3608.2813,21.7188 3608.8984,20.5703 Q3609.5156,19.4219 3610.6094,18.8047 Q3611.7031,18.1875 3612.9375,18.1875 Q3613.6719,18.1875 3614.3203,18.3516 Q3614.9688,18.5156 3615.5156,18.875 Z " fill="#000000"/><text fill="#000000" font-family="sans-serif" font-size="14" lengthAdjust="spacing" textLength="64" x="3633.25" y="28.7285">MySqlDao</text><line style="stroke:#181818;stroke-width:0.5;" x1="3487" x2="3811" y1="39" y2="39"/><text fill="#000000" font-family="sans-serif" font-size="14" lengthAdjust="spacing" text-decoration="underline" textLength="92" x="3492" y="57.5332">-Driver : String</text><text fill="#000000" font-family="sans-serif" font-size="14" lengthAdjust="spacing" text-decoration="underline" textLength="81" x="3492" y="75.1426">-URL : String</text><text fill="#000000" font-family="sans-serif" font-size="14" lengthAdjust="spacing" text-decoration="underline" textLength="91" x="3492" y="92.752">-USER : String</text><text fill="#000000" font-family="sans-serif" font-size="14" lengthAdjust="spacing" text-decoration="underline" textLength="134" x="3492" y="110.3613">-PASSWORD : String</text><text fill="#000000" font-family="sans-serif" font-size="14" lengthAdjust="spacing" text-decoration="underline" textLength="134" x="3492" y="127.9707">-instance : MySqlDao</text><text fill="#000000" font-family="sans-serif" font-size="14" lengthAdjust="spacing" text-decoration="underline" textLength="158" x="3492" y="145.5801">-connection : Connection</text><line style="stroke:#181818;stroke-width:0.5;" x1="3487" x2="3811" y1="152.6563" y2="152.6563"/><text fill="#000000" font-family="sans-serif" font-size="14" lengthAdjust="spacing" textLength="216" x="3492" y="171.1895">+getProductoDao() : ProductoDao</text><text fill="#000000" font-family="sans-serif" font-size="14" lengthAdjust="spacing" textLength="200" x="3492" y="188.7988">+getFacturaDao() : FacturaDao</text><text fill="#000000" font-family="sans-serif" font-size="14" lengthAdjust="spacing" textLength="190" x="3492" y="206.4082">+getClienteDao() : ClienteDao</text><text fill="#000000" font-family="sans-serif" font-size="14" lengthAdjust="spacing" textLength="314" x="3492" y="224.0176">+getProductoFacturaDao() : ProductoFacturaDao</text><text fill="#000000" font-family="sans-serif" font-size="14" lengthAdjust="spacing" text-decoration="underline" textLength="211" x="3492" y="241.627">-createConnection() : Connection</text><text fill="#000000" font-family="sans-serif" font-size="14" lengthAdjust="spacing" text-decoration="underline" textLength="194" x="3492" y="259.2363">+getConnection() : Connection</text><text fill="#000000" font-family="sans-serif" font-size="14" lengthAdjust="spacing" text-decoration="underline" textLength="177" x="3492" y="276.8457">+getInstance() : DaoFactory</text><text fill="#000000" font-family="sans-serif" font-size="14" lengthAdjust="spacing" text-decoration="underline" textLength="253" x="3492" y="294.4551">+commit(connection : Connection) : void</text><text fill="#000000" font-family="sans-serif" font-size="14" lengthAdjust="spacing" text-decoration="underline" textLength="258" x="3492" y="312.0645">+rollback(connection : Connection) : void</text><text fill="#000000" font-family="sans-serif" font-size="14" lengthAdjust="spacing" textLength="161" x="3492" y="329.6738">+closeConnection() : void</text></g><!--MD5=[4ff24502377561381df4597efd4e8405]
class DaoFactory--><g id="elem_DaoFactory"><rect codeLine="108" fill="#F1F1F1" height="153.6563" id="DaoFactory" rx="2.5" ry="2.5" style="stroke:#181818;stroke-width:0.5;" width="339" x="3479.5" y="441"/><ellipse cx="3607.75" cy="457" fill="#ADD1B2" rx="11" ry="11" style="stroke:#181818;stroke-width:1.0;"/><path d="M3610.5156,452.875 Q3610.6719,452.6563 3610.8594,452.5469 Q3611.0469,452.4375 3611.2656,452.4375 Q3611.6406,452.4375 3611.875,452.6953 Q3612.1094,452.9531 3612.1094,453.5625 L3612.1094,455.0156 Q3612.1094,455.625 3611.875,455.8906 Q3611.6406,456.1563 3611.2656,456.1563 Q3610.9219,456.1563 3610.7188,455.9531 Q3610.5156,455.7656 3610.4063,455.25 Q3610.3594,454.8906 3610.1719,454.7031 Q3609.8438,454.3281 3609.2344,454.1094 Q3608.625,453.8906 3608,453.8906 Q3607.2344,453.8906 3606.6016,454.2188 Q3605.9688,454.5469 3605.4766,455.2969 Q3604.9844,456.0469 3604.9844,457.0781 L3604.9844,458.1719 Q3604.9844,459.4063 3605.875,460.2266 Q3606.7656,461.0469 3608.3594,461.0469 Q3609.2969,461.0469 3609.9531,460.7969 Q3610.3438,460.6406 3610.7656,460.2031 Q3611.0313,459.9375 3611.1797,459.8594 Q3611.3281,459.7813 3611.5313,459.7813 Q3611.8594,459.7813 3612.1172,460.0391 Q3612.375,460.2969 3612.375,460.6406 Q3612.375,460.9844 3612.0313,461.3906 Q3611.5313,461.9688 3610.7344,462.2969 Q3609.6563,462.75 3608.3594,462.75 Q3606.8438,462.75 3605.6406,462.125 Q3604.6563,461.625 3603.9688,460.5547 Q3603.2813,459.4844 3603.2813,458.2031 L3603.2813,457.0469 Q3603.2813,455.7188 3603.8984,454.5703 Q3604.5156,453.4219 3605.6094,452.8047 Q3606.7031,452.1875 3607.9375,452.1875 Q3608.6719,452.1875 3609.3203,452.3516 Q3609.9688,452.5156 3610.5156,452.875 Z " fill="#000000"/><text fill="#000000" font-family="sans-serif" font-size="14" lengthAdjust="spacing" textLength="74" x="3628.25" y="462.7285">DaoFactory</text><line style="stroke:#181818;stroke-width:0.5;" x1="3480.5" x2="3817.5" y1="473" y2="473"/><line style="stroke:#181818;stroke-width:0.5;" x1="3480.5" x2="3817.5" y1="481" y2="481"/><text fill="#000000" font-family="sans-serif" font-size="14" lengthAdjust="spacing" text-decoration="underline" textLength="327" x="3485.5" y="499.5332">+getDaoFactory(database : TypesDB) : DaoFactory</text><text fill="#000000" font-family="sans-serif" font-size="14" font-style="italic" lengthAdjust="spacing" textLength="160" x="3485.5" y="517.1426">+closeConnection() : void</text><text fill="#000000" font-family="sans-serif" font-size="14" font-style="italic" lengthAdjust="spacing" textLength="216" x="3485.5" y="534.752">+getProductoDao() : ProductoDao</text><text fill="#000000" font-family="sans-serif" font-size="14" font-style="italic" lengthAdjust="spacing" textLength="200" x="3485.5" y="552.3613">+getFacturaDao() : FacturaDao</text><text fill="#000000" font-family="sans-serif" font-size="14" font-style="italic" lengthAdjust="spacing" textLength="190" x="3485.5" y="569.9707">+getClienteDao() : ClienteDao</text><text fill="#000000" font-family="sans-serif" font-size="14" font-style="italic" lengthAdjust="spacing" textLength="314" x="3485.5" y="587.5801">+getProductoFacturaDao() : ProductoFacturaDao</text></g><!--MD5=[6b9deba27f6f0379c99032d6a01774aa]
class CSVReaderServiceImpl--><g id="elem_CSVReaderServiceImpl"><rect codeLine="116" fill="#F1F1F1" height="118.4375" id="CSVReaderServiceImpl" rx="2.5" ry="2.5" style="stroke:#181818;stroke-width:0.5;" width="470" x="3865" y="113"/><ellipse cx="4022.25" cy="129" fill="#ADD1B2" rx="11" ry="11" style="stroke:#181818;stroke-width:1.0;"/><path d="M4025.0156,124.875 Q4025.1719,124.6563 4025.3594,124.5469 Q4025.5469,124.4375 4025.7656,124.4375 Q4026.1406,124.4375 4026.375,124.6953 Q4026.6094,124.9531 4026.6094,125.5625 L4026.6094,127.0156 Q4026.6094,127.625 4026.375,127.8906 Q4026.1406,128.1563 4025.7656,128.1563 Q4025.4219,128.1563 4025.2188,127.9531 Q4025.0156,127.7656 4024.9063,127.25 Q4024.8594,126.8906 4024.6719,126.7031 Q4024.3438,126.3281 4023.7344,126.1094 Q4023.125,125.8906 4022.5,125.8906 Q4021.7344,125.8906 4021.1016,126.2188 Q4020.4688,126.5469 4019.9766,127.2969 Q4019.4844,128.0469 4019.4844,129.0781 L4019.4844,130.1719 Q4019.4844,131.4063 4020.375,132.2266 Q4021.2656,133.0469 4022.8594,133.0469 Q4023.7969,133.0469 4024.4531,132.7969 Q4024.8438,132.6406 4025.2656,132.2031 Q4025.5313,131.9375 4025.6797,131.8594 Q4025.8281,131.7813 4026.0313,131.7813 Q4026.3594,131.7813 4026.6172,132.0391 Q4026.875,132.2969 4026.875,132.6406 Q4026.875,132.9844 4026.5313,133.3906 Q4026.0313,133.9688 4025.2344,134.2969 Q4024.1563,134.75 4022.8594,134.75 Q4021.3438,134.75 4020.1406,134.125 Q4019.1563,133.625 4018.4688,132.5547 Q4017.7813,131.4844 4017.7813,130.2031 L4017.7813,129.0469 Q4017.7813,127.7188 4018.3984,126.5703 Q4019.0156,125.4219 4020.1094,124.8047 Q4021.2031,124.1875 4022.4375,124.1875 Q4023.1719,124.1875 4023.8203,124.3516 Q4024.4688,124.5156 4025.0156,124.875 Z " fill="#000000"/><text fill="#000000" font-family="sans-serif" font-size="14" lengthAdjust="spacing" textLength="147" x="4042.75" y="134.7285">CSVReaderServiceImpl</text><line style="stroke:#181818;stroke-width:0.5;" x1="3866" x2="4334" y1="145" y2="145"/><line style="stroke:#181818;stroke-width:0.5;" x1="3866" x2="4334" y1="153" y2="153"/><text fill="#000000" font-family="sans-serif" font-size="14" lengthAdjust="spacing" textLength="341" x="3871" y="171.5332">+readClientsFromCSV(filePath : String) : List&lt;Cliente&gt;</text><text fill="#000000" font-family="sans-serif" font-size="14" lengthAdjust="spacing" textLength="352" x="3871" y="189.1426">+readFactureFromCSV(filePath : String) : List&lt;Factura&gt;</text><text fill="#000000" font-family="sans-serif" font-size="14" lengthAdjust="spacing" textLength="367" x="3871" y="206.752">+readProductsFromCSV(filePath : String) : List&lt;Producto&gt;</text><text fill="#000000" font-family="sans-serif" font-size="14" lengthAdjust="spacing" textLength="458" x="3871" y="224.3613">+readProductFactureFromCSV(filePath : String) : List&lt;ProductoFactura&gt;</text></g><!--MD5=[3c6a56f4226389820eb1e9976b122a08]
class CSVReaderService--><g id="elem_CSVReaderService"><rect codeLine="209" fill="#F1F1F1" height="118.4375" id="CSVReaderService" rx="2.5" ry="2.5" style="stroke:#181818;stroke-width:0.5;" width="470" x="3865" y="459"/><ellipse cx="4035.25" cy="475" fill="#B4A7E5" rx="11" ry="11" style="stroke:#181818;stroke-width:1.0;"/><path d="M4036.2031,471.6406 L4036.2031,478.2969 L4037.9219,478.2969 Q4038.5313,478.2969 4038.7969,478.5313 Q4039.0625,478.7656 4039.0625,479.1563 Q4039.0625,479.5313 4038.7969,479.7656 Q4038.5313,480 4037.9219,480 L4032.7813,480 Q4032.1719,480 4031.9063,479.7656 Q4031.6406,479.5313 4031.6406,479.1406 Q4031.6406,478.7656 4031.9063,478.5313 Q4032.1719,478.2969 4032.7813,478.2969 L4034.5,478.2969 L4034.5,471.6406 L4032.7813,471.6406 Q4032.1719,471.6406 4031.9063,471.4063 Q4031.6406,471.1719 4031.6406,470.7813 Q4031.6406,470.4063 4031.9063,470.1719 Q4032.1719,469.9375 4032.7813,469.9375 L4037.9219,469.9375 Q4038.5313,469.9375 4038.7969,470.1719 Q4039.0625,470.4063 4039.0625,470.7813 Q4039.0625,471.1719 4038.7969,471.4063 Q4038.5313,471.6406 4037.9219,471.6406 L4036.2031,471.6406 Z " fill="#000000"/><text fill="#000000" font-family="sans-serif" font-size="14" font-style="italic" lengthAdjust="spacing" textLength="121" x="4055.75" y="480.7285">CSVReaderService</text><line style="stroke:#181818;stroke-width:0.5;" x1="3866" x2="4334" y1="491" y2="491"/><line style="stroke:#181818;stroke-width:0.5;" x1="3866" x2="4334" y1="499" y2="499"/><text fill="#000000" font-family="sans-serif" font-size="14" lengthAdjust="spacing" textLength="341" x="3871" y="517.5332">+readClientsFromCSV(filePath : String) : List&lt;Cliente&gt;</text><text fill="#000000" font-family="sans-serif" font-size="14" lengthAdjust="spacing" textLength="352" x="3871" y="535.1426">+readFactureFromCSV(filePath : String) : List&lt;Factura&gt;</text><text fill="#000000" font-family="sans-serif" font-size="14" lengthAdjust="spacing" textLength="367" x="3871" y="552.752">+readProductsFromCSV(filePath : String) : List&lt;Producto&gt;</text><text fill="#000000" font-family="sans-serif" font-size="14" lengthAdjust="spacing" textLength="458" x="3871" y="570.3613">+readProductFactureFromCSV(filePath : String) : List&lt;ProductoFactura&gt;</text></g><!--MD5=[6c59a2e22793fe0a1c0da59066759b69]
class FacturaDao--><g id="elem_FacturaDao"><rect codeLine="123" fill="#F1F1F1" height="153.6563" id="FacturaDao" rx="2.5" ry="2.5" style="stroke:#181818;stroke-width:0.5;" width="420" x="4370" y="95"/><ellipse cx="4538.25" cy="111" fill="#ADD1B2" rx="11" ry="11" style="stroke:#181818;stroke-width:1.0;"/><path d="M4541.0156,106.875 Q4541.1719,106.6563 4541.3594,106.5469 Q4541.5469,106.4375 4541.7656,106.4375 Q4542.1406,106.4375 4542.375,106.6953 Q4542.6094,106.9531 4542.6094,107.5625 L4542.6094,109.0156 Q4542.6094,109.625 4542.375,109.8906 Q4542.1406,110.1563 4541.7656,110.1563 Q4541.4219,110.1563 4541.2188,109.9531 Q4541.0156,109.7656 4540.9063,109.25 Q4540.8594,108.8906 4540.6719,108.7031 Q4540.3438,108.3281 4539.7344,108.1094 Q4539.125,107.8906 4538.5,107.8906 Q4537.7344,107.8906 4537.1016,108.2188 Q4536.4688,108.5469 4535.9766,109.2969 Q4535.4844,110.0469 4535.4844,111.0781 L4535.4844,112.1719 Q4535.4844,113.4063 4536.375,114.2266 Q4537.2656,115.0469 4538.8594,115.0469 Q4539.7969,115.0469 4540.4531,114.7969 Q4540.8438,114.6406 4541.2656,114.2031 Q4541.5313,113.9375 4541.6797,113.8594 Q4541.8281,113.7813 4542.0313,113.7813 Q4542.3594,113.7813 4542.6172,114.0391 Q4542.875,114.2969 4542.875,114.6406 Q4542.875,114.9844 4542.5313,115.3906 Q4542.0313,115.9688 4541.2344,116.2969 Q4540.1563,116.75 4538.8594,116.75 Q4537.3438,116.75 4536.1406,116.125 Q4535.1563,115.625 4534.4688,114.5547 Q4533.7813,113.4844 4533.7813,112.2031 L4533.7813,111.0469 Q4533.7813,109.7188 4534.3984,108.5703 Q4535.0156,107.4219 4536.1094,106.8047 Q4537.2031,106.1875 4538.4375,106.1875 Q4539.1719,106.1875 4539.8203,106.3516 Q4540.4688,106.5156 4541.0156,106.875 Z " fill="#000000"/><text fill="#000000" font-family="sans-serif" font-size="14" lengthAdjust="spacing" textLength="75" x="4558.75" y="116.7285">FacturaDao</text><line style="stroke:#181818;stroke-width:0.5;" x1="4371" x2="4789" y1="127" y2="127"/><line style="stroke:#181818;stroke-width:0.5;" x1="4371" x2="4789" y1="135" y2="135"/><text fill="#000000" font-family="sans-serif" font-size="14" lengthAdjust="spacing" textLength="132" x="4376" y="153.5332">+createTable() : void</text><text fill="#000000" font-family="sans-serif" font-size="14" lengthAdjust="spacing" textLength="186" x="4376" y="171.1426">+getFactura(id : int) : Factura</text><text fill="#000000" font-family="sans-serif" font-size="14" lengthAdjust="spacing" textLength="220" x="4376" y="188.752">+getFactura() : ArrayList&lt;Factura&gt;</text><text fill="#000000" font-family="sans-serif" font-size="14" lengthAdjust="spacing" textLength="408" x="4376" y="206.3613">+createFacturas(facturasACrear : List&lt;Factura&gt;) : List&lt;Factura&gt;</text><text fill="#000000" font-family="sans-serif" font-size="14" lengthAdjust="spacing" textLength="273" x="4376" y="223.9707">+createFactura(factura : Factura) : Factura</text><text fill="#000000" font-family="sans-serif" font-size="14" lengthAdjust="spacing" textLength="393" x="4376" y="241.5801">-createFactura(factura : Factura, conn : Connection) : Factura</text></g><!--MD5=[f2ff28c44b62f62bc5603bb6262ec450]
class IFacturaDao--><g id="elem_IFacturaDao"><rect codeLine="202" fill="#F1F1F1" height="136.0469" id="IFacturaDao" rx="2.5" ry="2.5" style="stroke:#181818;stroke-width:0.5;" width="420" x="4370" y="450"/><ellipse cx="4536.25" cy="466" fill="#B4A7E5" rx="11" ry="11" style="stroke:#181818;stroke-width:1.0;"/><path d="M4537.2031,462.6406 L4537.2031,469.2969 L4538.9219,469.2969 Q4539.5313,469.2969 4539.7969,469.5313 Q4540.0625,469.7656 4540.0625,470.1563 Q4540.0625,470.5313 4539.7969,470.7656 Q4539.5313,471 4538.9219,471 L4533.7813,471 Q4533.1719,471 4532.9063,470.7656 Q4532.6406,470.5313 4532.6406,470.1406 Q4532.6406,469.7656 4532.9063,469.5313 Q4533.1719,469.2969 4533.7813,469.2969 L4535.5,469.2969 L4535.5,462.6406 L4533.7813,462.6406 Q4533.1719,462.6406 4532.9063,462.4063 Q4532.6406,462.1719 4532.6406,461.7813 Q4532.6406,461.4063 4532.9063,461.1719 Q4533.1719,460.9375 4533.7813,460.9375 L4538.9219,460.9375 Q4539.5313,460.9375 4539.7969,461.1719 Q4540.0625,461.4063 4540.0625,461.7813 Q4540.0625,462.1719 4539.7969,462.4063 Q4539.5313,462.6406 4538.9219,462.6406 L4537.2031,462.6406 Z " fill="#000000"/><text fill="#000000" font-family="sans-serif" font-size="14" font-style="italic" lengthAdjust="spacing" textLength="79" x="4556.75" y="471.7285">IFacturaDao</text><line style="stroke:#181818;stroke-width:0.5;" x1="4371" x2="4789" y1="482" y2="482"/><line style="stroke:#181818;stroke-width:0.5;" x1="4371" x2="4789" y1="490" y2="490"/><text fill="#000000" font-family="sans-serif" font-size="14" lengthAdjust="spacing" textLength="132" x="4376" y="508.5332">+createTable() : void</text><text fill="#000000" font-family="sans-serif" font-size="14" lengthAdjust="spacing" textLength="186" x="4376" y="526.1426">+getFactura(id : int) : Factura</text><text fill="#000000" font-family="sans-serif" font-size="14" lengthAdjust="spacing" textLength="220" x="4376" y="543.752">+getFactura() : ArrayList&lt;Factura&gt;</text><text fill="#000000" font-family="sans-serif" font-size="14" lengthAdjust="spacing" textLength="273" x="4376" y="561.3613">+createFactura(factura : Factura) : Factura</text><text fill="#000000" font-family="sans-serif" font-size="14" lengthAdjust="spacing" textLength="408" x="4376" y="578.9707">+createFacturas(facturasACrear : List&lt;Factura&gt;) : List&lt;Factura&gt;</text></g><!--MD5=[ff20b1e05272f20105742783c7648570]
class ClienteDao--><g id="elem_ClienteDao"><rect codeLine="132" fill="#F1F1F1" height="188.875" id="ClienteDao" rx="2.5" ry="2.5" style="stroke:#181818;stroke-width:0.5;" width="435" x="4825.5" y="77.5"/><ellipse cx="5003.75" cy="93.5" fill="#ADD1B2" rx="11" ry="11" style="stroke:#181818;stroke-width:1.0;"/><path d="M5006.5156,89.375 Q5006.6719,89.1563 5006.8594,89.0469 Q5007.0469,88.9375 5007.2656,88.9375 Q5007.6406,88.9375 5007.875,89.1953 Q5008.1094,89.4531 5008.1094,90.0625 L5008.1094,91.5156 Q5008.1094,92.125 5007.875,92.3906 Q5007.6406,92.6563 5007.2656,92.6563 Q5006.9219,92.6563 5006.7188,92.4531 Q5006.5156,92.2656 5006.4063,91.75 Q5006.3594,91.3906 5006.1719,91.2031 Q5005.8438,90.8281 5005.2344,90.6094 Q5004.625,90.3906 5004,90.3906 Q5003.2344,90.3906 5002.6016,90.7188 Q5001.9688,91.0469 5001.4766,91.7969 Q5000.9844,92.5469 5000.9844,93.5781 L5000.9844,94.6719 Q5000.9844,95.9063 5001.875,96.7266 Q5002.7656,97.5469 5004.3594,97.5469 Q5005.2969,97.5469 5005.9531,97.2969 Q5006.3438,97.1406 5006.7656,96.7031 Q5007.0313,96.4375 5007.1797,96.3594 Q5007.3281,96.2813 5007.5313,96.2813 Q5007.8594,96.2813 5008.1172,96.5391 Q5008.375,96.7969 5008.375,97.1406 Q5008.375,97.4844 5008.0313,97.8906 Q5007.5313,98.4688 5006.7344,98.7969 Q5005.6563,99.25 5004.3594,99.25 Q5002.8438,99.25 5001.6406,98.625 Q5000.6563,98.125 4999.9688,97.0547 Q4999.2813,95.9844 4999.2813,94.7031 L4999.2813,93.5469 Q4999.2813,92.2188 4999.8984,91.0703 Q5000.5156,89.9219 5001.6094,89.3047 Q5002.7031,88.6875 5003.9375,88.6875 Q5004.6719,88.6875 5005.3203,88.8516 Q5005.9688,89.0156 5006.5156,89.375 Z " fill="#000000"/><text fill="#000000" font-family="sans-serif" font-size="14" lengthAdjust="spacing" textLength="70" x="5024.25" y="99.2285">ClienteDao</text><line style="stroke:#181818;stroke-width:0.5;" x1="4826.5" x2="5259.5" y1="109.5" y2="109.5"/><line style="stroke:#181818;stroke-width:0.5;" x1="4826.5" x2="5259.5" y1="117.5" y2="117.5"/><text fill="#000000" font-family="sans-serif" font-size="14" lengthAdjust="spacing" textLength="132" x="4831.5" y="136.0332">+createTable() : void</text><text fill="#000000" font-family="sans-serif" font-size="14" lengthAdjust="spacing" textLength="176" x="4831.5" y="153.6426">+getCliente(id : int) : Cliente</text><text fill="#000000" font-family="sans-serif" font-size="14" lengthAdjust="spacing" textLength="217" x="4831.5" y="171.252">+getClientes() : ArrayList&lt;Cliente&gt;</text><text fill="#000000" font-family="sans-serif" font-size="14" lengthAdjust="spacing" textLength="423" x="4831.5" y="188.8613">+getClientesPorFacturacion() : List&lt;RespuestaClienteFacturacion&gt;</text><text fill="#000000" font-family="sans-serif" font-size="14" lengthAdjust="spacing" textLength="390" x="4831.5" y="206.4707">+createClientes(clientesACrear : List&lt;Cliente&gt;) : List&lt;Cliente&gt;</text><text fill="#000000" font-family="sans-serif" font-size="14" lengthAdjust="spacing" textLength="255" x="4831.5" y="224.0801">+createCliente(cliente : Cliente) : Cliente</text><text fill="#000000" font-family="sans-serif" font-size="14" lengthAdjust="spacing" textLength="259" x="4831.5" y="241.6895">+updateCliente(cliente : Cliente) : Cliente</text><text fill="#000000" font-family="sans-serif" font-size="14" lengthAdjust="spacing" textLength="375" x="4831.5" y="259.2988">-createCliente(cliente : Cliente, conn : Connection) : Cliente</text></g><!--MD5=[5ca824fd181eaf2b97f0e0c77981a483]
class IClienteDao--><g id="elem_IClienteDao"><rect codeLine="215" fill="#F1F1F1" height="171.2656" id="IClienteDao" rx="2.5" ry="2.5" style="stroke:#181818;stroke-width:0.5;" width="435" x="4825.5" y="432.5"/><ellipse cx="5001.75" cy="448.5" fill="#B4A7E5" rx="11" ry="11" style="stroke:#181818;stroke-width:1.0;"/><path d="M5002.7031,445.1406 L5002.7031,451.7969 L5004.4219,451.7969 Q5005.0313,451.7969 5005.2969,452.0313 Q5005.5625,452.2656 5005.5625,452.6563 Q5005.5625,453.0313 5005.2969,453.2656 Q5005.0313,453.5 5004.4219,453.5 L4999.2813,453.5 Q4998.6719,453.5 4998.4063,453.2656 Q4998.1406,453.0313 4998.1406,452.6406 Q4998.1406,452.2656 4998.4063,452.0313 Q4998.6719,451.7969 4999.2813,451.7969 L5001,451.7969 L5001,445.1406 L4999.2813,445.1406 Q4998.6719,445.1406 4998.4063,444.9063 Q4998.1406,444.6719 4998.1406,444.2813 Q4998.1406,443.9063 4998.4063,443.6719 Q4998.6719,443.4375 4999.2813,443.4375 L5004.4219,443.4375 Q5005.0313,443.4375 5005.2969,443.6719 Q5005.5625,443.9063 5005.5625,444.2813 Q5005.5625,444.6719 5005.2969,444.9063 Q5005.0313,445.1406 5004.4219,445.1406 L5002.7031,445.1406 Z " fill="#000000"/><text fill="#000000" font-family="sans-serif" font-size="14" font-style="italic" lengthAdjust="spacing" textLength="74" x="5022.25" y="454.2285">IClienteDao</text><line style="stroke:#181818;stroke-width:0.5;" x1="4826.5" x2="5259.5" y1="464.5" y2="464.5"/><line style="stroke:#181818;stroke-width:0.5;" x1="4826.5" x2="5259.5" y1="472.5" y2="472.5"/><text fill="#000000" font-family="sans-serif" font-size="14" lengthAdjust="spacing" textLength="132" x="4831.5" y="491.0332">+createTable() : void</text><text fill="#000000" font-family="sans-serif" font-size="14" lengthAdjust="spacing" textLength="176" x="4831.5" y="508.6426">+getCliente(id : int) : Cliente</text><text fill="#000000" font-family="sans-serif" font-size="14" lengthAdjust="spacing" textLength="217" x="4831.5" y="526.252">+getClientes() : ArrayList&lt;Cliente&gt;</text><text fill="#000000" font-family="sans-serif" font-size="14" lengthAdjust="spacing" textLength="423" x="4831.5" y="543.8613">+getClientesPorFacturacion() : List&lt;RespuestaClienteFacturacion&gt;</text><text fill="#000000" font-family="sans-serif" font-size="14" lengthAdjust="spacing" textLength="255" x="4831.5" y="561.4707">+createCliente(cliente : Cliente) : Cliente</text><text fill="#000000" font-family="sans-serif" font-size="14" lengthAdjust="spacing" textLength="345" x="4831.5" y="579.0801">+createClientes(clientes : List&lt;Cliente&gt;) : List&lt;Cliente&gt;</text><text fill="#000000" font-family="sans-serif" font-size="14" lengthAdjust="spacing" textLength="259" x="4831.5" y="596.6895">+updateCliente(cliente : Cliente) : Cliente</text></g><!--MD5=[3367fb3c474ac719313740415f3412cc]
class ClienteEntity--><g id="elem_ClienteEntity"><rect codeLine="143" fill="#F1F1F1" height="224.0938" id="ClienteEntity" rx="2.5" ry="2.5" style="stroke:#181818;stroke-width:0.5;" width="233" x="2234.5" y="699"/><ellipse cx="2307.25" cy="715" fill="#ADD1B2" rx="11" ry="11" style="stroke:#181818;stroke-width:1.0;"/><path d="M2310.0156,710.875 Q2310.1719,710.6563 2310.3594,710.5469 Q2310.5469,710.4375 2310.7656,710.4375 Q2311.1406,710.4375 2311.375,710.6953 Q2311.6094,710.9531 2311.6094,711.5625 L2311.6094,713.0156 Q2311.6094,713.625 2311.375,713.8906 Q2311.1406,714.1563 2310.7656,714.1563 Q2310.4219,714.1563 2310.2188,713.9531 Q2310.0156,713.7656 2309.9063,713.25 Q2309.8594,712.8906 2309.6719,712.7031 Q2309.3438,712.3281 2308.7344,712.1094 Q2308.125,711.8906 2307.5,711.8906 Q2306.7344,711.8906 2306.1016,712.2188 Q2305.4688,712.5469 2304.9766,713.2969 Q2304.4844,714.0469 2304.4844,715.0781 L2304.4844,716.1719 Q2304.4844,717.4063 2305.375,718.2266 Q2306.2656,719.0469 2307.8594,719.0469 Q2308.7969,719.0469 2309.4531,718.7969 Q2309.8438,718.6406 2310.2656,718.2031 Q2310.5313,717.9375 2310.6797,717.8594 Q2310.8281,717.7813 2311.0313,717.7813 Q2311.3594,717.7813 2311.6172,718.0391 Q2311.875,718.2969 2311.875,718.6406 Q2311.875,718.9844 2311.5313,719.3906 Q2311.0313,719.9688 2310.2344,720.2969 Q2309.1563,720.75 2307.8594,720.75 Q2306.3438,720.75 2305.1406,720.125 Q2304.1563,719.625 2303.4688,718.5547 Q2302.7813,717.4844 2302.7813,716.2031 L2302.7813,715.0469 Q2302.7813,713.7188 2303.3984,712.5703 Q2304.0156,711.4219 2305.1094,710.8047 Q2306.2031,710.1875 2307.4375,710.1875 Q2308.1719,710.1875 2308.8203,710.3516 Q2309.4688,710.5156 2310.0156,710.875 Z " fill="#000000"/><text fill="#000000" font-family="sans-serif" font-size="14" lengthAdjust="spacing" textLength="79" x="2327.75" y="720.7285">ClienteEntity</text><line style="stroke:#181818;stroke-width:0.5;" x1="2235.5" x2="2466.5" y1="731" y2="731"/><text fill="#000000" font-family="sans-serif" font-size="14" lengthAdjust="spacing" textLength="87" x="2240.5" y="749.5332">-idCliente : int</text><text fill="#000000" font-family="sans-serif" font-size="14" lengthAdjust="spacing" textLength="102" x="2240.5" y="767.1426">-nombre : String</text><text fill="#000000" font-family="sans-serif" font-size="14" lengthAdjust="spacing" textLength="87" x="2240.5" y="784.752">-email : String</text><line style="stroke:#181818;stroke-width:0.5;" x1="2235.5" x2="2466.5" y1="791.8281" y2="791.8281"/><text fill="#000000" font-family="sans-serif" font-size="14" lengthAdjust="spacing" textLength="97" x="2240.5" y="810.3613">+ClienteEntity()</text><text fill="#000000" font-family="sans-serif" font-size="14" lengthAdjust="spacing" textLength="120" x="2240.5" y="827.9707">+getIdCliente() : int</text><text fill="#000000" font-family="sans-serif" font-size="14" lengthAdjust="spacing" textLength="212" x="2240.5" y="845.5801">+setIdCliente(idCliente : int) : void</text><text fill="#000000" font-family="sans-serif" font-size="14" lengthAdjust="spacing" textLength="136" x="2240.5" y="863.1895">+getNombre() : String</text><text fill="#000000" font-family="sans-serif" font-size="14" lengthAdjust="spacing" textLength="221" x="2240.5" y="880.7988">+setNombre(nombre : String) : void</text><text fill="#000000" font-family="sans-serif" font-size="14" lengthAdjust="spacing" textLength="121" x="2240.5" y="898.4082">+getEmail() : String</text><text fill="#000000" font-family="sans-serif" font-size="14" lengthAdjust="spacing" textLength="191" x="2240.5" y="916.0176">+setEmail(email : String) : void</text></g><!--MD5=[a34f4f62b7f40a424b0b6f8e80dc44e4]
class FacturaEntity--><g id="elem_FacturaEntity"><rect codeLine="155" fill="#F1F1F1" height="171.2656" id="FacturaEntity" rx="2.5" ry="2.5" style="stroke:#181818;stroke-width:0.5;" width="263" x="2219.5" y="432.5"/><ellipse cx="2304.75" cy="448.5" fill="#ADD1B2" rx="11" ry="11" style="stroke:#181818;stroke-width:1.0;"/><path d="M2307.5156,444.375 Q2307.6719,444.1563 2307.8594,444.0469 Q2308.0469,443.9375 2308.2656,443.9375 Q2308.6406,443.9375 2308.875,444.1953 Q2309.1094,444.4531 2309.1094,445.0625 L2309.1094,446.5156 Q2309.1094,447.125 2308.875,447.3906 Q2308.6406,447.6563 2308.2656,447.6563 Q2307.9219,447.6563 2307.7188,447.4531 Q2307.5156,447.2656 2307.4063,446.75 Q2307.3594,446.3906 2307.1719,446.2031 Q2306.8438,445.8281 2306.2344,445.6094 Q2305.625,445.3906 2305,445.3906 Q2304.2344,445.3906 2303.6016,445.7188 Q2302.9688,446.0469 2302.4766,446.7969 Q2301.9844,447.5469 2301.9844,448.5781 L2301.9844,449.6719 Q2301.9844,450.9063 2302.875,451.7266 Q2303.7656,452.5469 2305.3594,452.5469 Q2306.2969,452.5469 2306.9531,452.2969 Q2307.3438,452.1406 2307.7656,451.7031 Q2308.0313,451.4375 2308.1797,451.3594 Q2308.3281,451.2813 2308.5313,451.2813 Q2308.8594,451.2813 2309.1172,451.5391 Q2309.375,451.7969 2309.375,452.1406 Q2309.375,452.4844 2309.0313,452.8906 Q2308.5313,453.4688 2307.7344,453.7969 Q2306.6563,454.25 2305.3594,454.25 Q2303.8438,454.25 2302.6406,453.625 Q2301.6563,453.125 2300.9688,452.0547 Q2300.2813,450.9844 2300.2813,449.7031 L2300.2813,448.5469 Q2300.2813,447.2188 2300.8984,446.0703 Q2301.5156,444.9219 2302.6094,444.3047 Q2303.7031,443.6875 2304.9375,443.6875 Q2305.6719,443.6875 2306.3203,443.8516 Q2306.9688,444.0156 2307.5156,444.375 Z " fill="#000000"/><text fill="#000000" font-family="sans-serif" font-size="14" lengthAdjust="spacing" textLength="84" x="2325.25" y="454.2285">FacturaEntity</text><line style="stroke:#181818;stroke-width:0.5;" x1="2220.5" x2="2481.5" y1="464.5" y2="464.5"/><text fill="#000000" font-family="sans-serif" font-size="14" lengthAdjust="spacing" textLength="92" x="2225.5" y="483.0332">-idFactura : int</text><text fill="#000000" font-family="sans-serif" font-size="14" lengthAdjust="spacing" textLength="137" x="2225.5" y="500.6426">-cliente : ClienteEntity</text><line style="stroke:#181818;stroke-width:0.5;" x1="2220.5" x2="2481.5" y1="507.7188" y2="507.7188"/><text fill="#000000" font-family="sans-serif" font-size="14" lengthAdjust="spacing" textLength="102" x="2225.5" y="526.252">+FacturaEntity()</text><text fill="#000000" font-family="sans-serif" font-size="14" lengthAdjust="spacing" textLength="125" x="2225.5" y="543.8613">+getIdFactura() : int</text><text fill="#000000" font-family="sans-serif" font-size="14" lengthAdjust="spacing" textLength="222" x="2225.5" y="561.4707">+setIdFactura(idFactura : int) : void</text><text fill="#000000" font-family="sans-serif" font-size="14" lengthAdjust="spacing" textLength="173" x="2225.5" y="579.0801">+getCliente() : ClienteEntity</text><text fill="#000000" font-family="sans-serif" font-size="14" lengthAdjust="spacing" textLength="251" x="2225.5" y="596.6895">+setCliente(cliente : ClienteEntity) : void</text></g><!--MD5=[f16fa87cc4d1b811f38b9fb8db170dab]
class ProductoFacturaDao--><g id="elem_ProductoFacturaDao"><rect codeLine="164" fill="#F1F1F1" height="100.8281" id="ProductoFacturaDao" rx="2.5" ry="2.5" style="stroke:#181818;stroke-width:0.5;" width="652" x="5296" y="121.5"/><ellipse cx="5551.75" cy="137.5" fill="#ADD1B2" rx="11" ry="11" style="stroke:#181818;stroke-width:1.0;"/><path d="M5554.5156,133.375 Q5554.6719,133.1563 5554.8594,133.0469 Q5555.0469,132.9375 5555.2656,132.9375 Q5555.6406,132.9375 5555.875,133.1953 Q5556.1094,133.4531 5556.1094,134.0625 L5556.1094,135.5156 Q5556.1094,136.125 5555.875,136.3906 Q5555.6406,136.6563 5555.2656,136.6563 Q5554.9219,136.6563 5554.7188,136.4531 Q5554.5156,136.2656 5554.4063,135.75 Q5554.3594,135.3906 5554.1719,135.2031 Q5553.8438,134.8281 5553.2344,134.6094 Q5552.625,134.3906 5552,134.3906 Q5551.2344,134.3906 5550.6016,134.7188 Q5549.9688,135.0469 5549.4766,135.7969 Q5548.9844,136.5469 5548.9844,137.5781 L5548.9844,138.6719 Q5548.9844,139.9063 5549.875,140.7266 Q5550.7656,141.5469 5552.3594,141.5469 Q5553.2969,141.5469 5553.9531,141.2969 Q5554.3438,141.1406 5554.7656,140.7031 Q5555.0313,140.4375 5555.1797,140.3594 Q5555.3281,140.2813 5555.5313,140.2813 Q5555.8594,140.2813 5556.1172,140.5391 Q5556.375,140.7969 5556.375,141.1406 Q5556.375,141.4844 5556.0313,141.8906 Q5555.5313,142.4688 5554.7344,142.7969 Q5553.6563,143.25 5552.3594,143.25 Q5550.8438,143.25 5549.6406,142.625 Q5548.6563,142.125 5547.9688,141.0547 Q5547.2813,139.9844 5547.2813,138.7031 L5547.2813,137.5469 Q5547.2813,136.2188 5547.8984,135.0703 Q5548.5156,133.9219 5549.6094,133.3047 Q5550.7031,132.6875 5551.9375,132.6875 Q5552.6719,132.6875 5553.3203,132.8516 Q5553.9688,133.0156 5554.5156,133.375 Z " fill="#000000"/><text fill="#000000" font-family="sans-serif" font-size="14" lengthAdjust="spacing" textLength="132" x="5572.25" y="143.2285">ProductoFacturaDao</text><line style="stroke:#181818;stroke-width:0.5;" x1="5297" x2="5947" y1="153.5" y2="153.5"/><line style="stroke:#181818;stroke-width:0.5;" x1="5297" x2="5947" y1="161.5" y2="161.5"/><text fill="#000000" font-family="sans-serif" font-size="14" lengthAdjust="spacing" textLength="132" x="5302" y="180.0332">+createTable() : void</text><text fill="#000000" font-family="sans-serif" font-size="14" lengthAdjust="spacing" textLength="640" x="5302" y="197.6426">+createProductoFacturas(productosFacturaACrear : List&lt;ProductoFactura&gt;) : List&lt;ProductoFactura&gt;</text><text fill="#000000" font-family="sans-serif" font-size="14" lengthAdjust="spacing" textLength="625" x="5302" y="215.252">-createProductoFactura(productoFactura : ProductoFactura, conn : Connection) : ProductoFactura</text></g><!--MD5=[9d65fb1e50e1d7ff8872c77c80d77b32]
class IProductoFacturaDao--><g id="elem_IProductoFacturaDao"><rect codeLine="233" fill="#F1F1F1" height="83.2188" id="IProductoFacturaDao" rx="2.5" ry="2.5" style="stroke:#181818;stroke-width:0.5;" width="652" x="5296" y="476.5"/><ellipse cx="5549.75" cy="492.5" fill="#B4A7E5" rx="11" ry="11" style="stroke:#181818;stroke-width:1.0;"/><path d="M5550.7031,489.1406 L5550.7031,495.7969 L5552.4219,495.7969 Q5553.0313,495.7969 5553.2969,496.0313 Q5553.5625,496.2656 5553.5625,496.6563 Q5553.5625,497.0313 5553.2969,497.2656 Q5553.0313,497.5 5552.4219,497.5 L5547.2813,497.5 Q5546.6719,497.5 5546.4063,497.2656 Q5546.1406,497.0313 5546.1406,496.6406 Q5546.1406,496.2656 5546.4063,496.0313 Q5546.6719,495.7969 5547.2813,495.7969 L5549,495.7969 L5549,489.1406 L5547.2813,489.1406 Q5546.6719,489.1406 5546.4063,488.9063 Q5546.1406,488.6719 5546.1406,488.2813 Q5546.1406,487.9063 5546.4063,487.6719 Q5546.6719,487.4375 5547.2813,487.4375 L5552.4219,487.4375 Q5553.0313,487.4375 5553.2969,487.6719 Q5553.5625,487.9063 5553.5625,488.2813 Q5553.5625,488.6719 5553.2969,488.9063 Q5553.0313,489.1406 5552.4219,489.1406 L5550.7031,489.1406 Z " fill="#000000"/><text fill="#000000" font-family="sans-serif" font-size="14" font-style="italic" lengthAdjust="spacing" textLength="136" x="5570.25" y="498.2285">IProductoFacturaDao</text><line style="stroke:#181818;stroke-width:0.5;" x1="5297" x2="5947" y1="508.5" y2="508.5"/><line style="stroke:#181818;stroke-width:0.5;" x1="5297" x2="5947" y1="516.5" y2="516.5"/><text fill="#000000" font-family="sans-serif" font-size="14" lengthAdjust="spacing" textLength="132" x="5302" y="535.0332">+createTable() : void</text><text fill="#000000" font-family="sans-serif" font-size="14" lengthAdjust="spacing" textLength="640" x="5302" y="552.6426">+createProductoFacturas(productosFacturaACrear : List&lt;ProductoFactura&gt;) : List&lt;ProductoFactura&gt;</text></g><!--MD5=[a926c88f85ce99385ed3fd3448dac0f5]
class Factura--><g id="elem_Factura"><rect codeLine="170" fill="#F1F1F1" height="171.2656" id="Factura" rx="2.5" ry="2.5" style="stroke:#181818;stroke-width:0.5;" width="224" x="1675" y="432.5"/><ellipse cx="1758.25" cy="448.5" fill="#ADD1B2" rx="11" ry="11" style="stroke:#181818;stroke-width:1.0;"/><path d="M1761.0156,444.375 Q1761.1719,444.1563 1761.3594,444.0469 Q1761.5469,443.9375 1761.7656,443.9375 Q1762.1406,443.9375 1762.375,444.1953 Q1762.6094,444.4531 1762.6094,445.0625 L1762.6094,446.5156 Q1762.6094,447.125 1762.375,447.3906 Q1762.1406,447.6563 1761.7656,447.6563 Q1761.4219,447.6563 1761.2188,447.4531 Q1761.0156,447.2656 1760.9063,446.75 Q1760.8594,446.3906 1760.6719,446.2031 Q1760.3438,445.8281 1759.7344,445.6094 Q1759.125,445.3906 1758.5,445.3906 Q1757.7344,445.3906 1757.1016,445.7188 Q1756.4688,446.0469 1755.9766,446.7969 Q1755.4844,447.5469 1755.4844,448.5781 L1755.4844,449.6719 Q1755.4844,450.9063 1756.375,451.7266 Q1757.2656,452.5469 1758.8594,452.5469 Q1759.7969,452.5469 1760.4531,452.2969 Q1760.8438,452.1406 1761.2656,451.7031 Q1761.5313,451.4375 1761.6797,451.3594 Q1761.8281,451.2813 1762.0313,451.2813 Q1762.3594,451.2813 1762.6172,451.5391 Q1762.875,451.7969 1762.875,452.1406 Q1762.875,452.4844 1762.5313,452.8906 Q1762.0313,453.4688 1761.2344,453.7969 Q1760.1563,454.25 1758.8594,454.25 Q1757.3438,454.25 1756.1406,453.625 Q1755.1563,453.125 1754.4688,452.0547 Q1753.7813,450.9844 1753.7813,449.7031 L1753.7813,448.5469 Q1753.7813,447.2188 1754.3984,446.0703 Q1755.0156,444.9219 1756.1094,444.3047 Q1757.2031,443.6875 1758.4375,443.6875 Q1759.1719,443.6875 1759.8203,443.8516 Q1760.4688,444.0156 1761.0156,444.375 Z " fill="#000000"/><text fill="#000000" font-family="sans-serif" font-size="14" lengthAdjust="spacing" textLength="49" x="1778.75" y="454.2285">Factura</text><line style="stroke:#181818;stroke-width:0.5;" x1="1676" x2="1898" y1="464.5" y2="464.5"/><text fill="#000000" font-family="sans-serif" font-size="14" lengthAdjust="spacing" textLength="43" x="1681" y="483.0332">-id : int</text><text fill="#000000" font-family="sans-serif" font-size="14" lengthAdjust="spacing" textLength="87" x="1681" y="500.6426">-idCliente : int</text><line style="stroke:#181818;stroke-width:0.5;" x1="1676" x2="1898" y1="507.7188" y2="507.7188"/><text fill="#000000" font-family="sans-serif" font-size="14" lengthAdjust="spacing" textLength="195" x="1681" y="526.252">+Factura(id : int, idCliente : int)</text><text fill="#000000" font-family="sans-serif" font-size="14" lengthAdjust="spacing" textLength="76" x="1681" y="543.8613">+getId() : int</text><text fill="#000000" font-family="sans-serif" font-size="14" lengthAdjust="spacing" textLength="124" x="1681" y="561.4707">+setId(id : int) : void</text><text fill="#000000" font-family="sans-serif" font-size="14" lengthAdjust="spacing" textLength="120" x="1681" y="579.0801">+getIdCliente() : int</text><text fill="#000000" font-family="sans-serif" font-size="14" lengthAdjust="spacing" textLength="212" x="1681" y="596.6895">+setIdCliente(idCliente : int) : void</text></g><!--MD5=[288bb2bf7a84cf3f887c1f98ae0d5711]
class ProductoMapper--><g id="elem_ProductoMapper"><rect codeLine="179" fill="#F1F1F1" height="100.8281" id="ProductoMapper" rx="2.5" ry="2.5" style="stroke:#181818;stroke-width:0.5;" width="368" x="929" y="467.5"/><ellipse cx="1056.25" cy="483.5" fill="#ADD1B2" rx="11" ry="11" style="stroke:#181818;stroke-width:1.0;"/><path d="M1059.0156,479.375 Q1059.1719,479.1563 1059.3594,479.0469 Q1059.5469,478.9375 1059.7656,478.9375 Q1060.1406,478.9375 1060.375,479.1953 Q1060.6094,479.4531 1060.6094,480.0625 L1060.6094,481.5156 Q1060.6094,482.125 1060.375,482.3906 Q1060.1406,482.6563 1059.7656,482.6563 Q1059.4219,482.6563 1059.2188,482.4531 Q1059.0156,482.2656 1058.9063,481.75 Q1058.8594,481.3906 1058.6719,481.2031 Q1058.3438,480.8281 1057.7344,480.6094 Q1057.125,480.3906 1056.5,480.3906 Q1055.7344,480.3906 1055.1016,480.7188 Q1054.4688,481.0469 1053.9766,481.7969 Q1053.4844,482.5469 1053.4844,483.5781 L1053.4844,484.6719 Q1053.4844,485.9063 1054.375,486.7266 Q1055.2656,487.5469 1056.8594,487.5469 Q1057.7969,487.5469 1058.4531,487.2969 Q1058.8438,487.1406 1059.2656,486.7031 Q1059.5313,486.4375 1059.6797,486.3594 Q1059.8281,486.2813 1060.0313,486.2813 Q1060.3594,486.2813 1060.6172,486.5391 Q1060.875,486.7969 1060.875,487.1406 Q1060.875,487.4844 1060.5313,487.8906 Q1060.0313,488.4688 1059.2344,488.7969 Q1058.1563,489.25 1056.8594,489.25 Q1055.3438,489.25 1054.1406,488.625 Q1053.1563,488.125 1052.4688,487.0547 Q1051.7813,485.9844 1051.7813,484.7031 L1051.7813,483.5469 Q1051.7813,482.2188 1052.3984,481.0703 Q1053.0156,479.9219 1054.1094,479.3047 Q1055.2031,478.6875 1056.4375,478.6875 Q1057.1719,478.6875 1057.8203,478.8516 Q1058.4688,479.0156 1059.0156,479.375 Z " fill="#000000"/><text fill="#000000" font-family="sans-serif" font-size="14" lengthAdjust="spacing" textLength="105" x="1076.75" y="489.2285">ProductoMapper</text><line style="stroke:#181818;stroke-width:0.5;" x1="930" x2="1296" y1="499.5" y2="499.5"/><line style="stroke:#181818;stroke-width:0.5;" x1="930" x2="1296" y1="507.5" y2="507.5"/><text fill="#000000" font-family="sans-serif" font-size="14" lengthAdjust="spacing" textLength="123" x="935" y="526.0332">+ProductoMapper()</text><text fill="#000000" font-family="sans-serif" font-size="14" lengthAdjust="spacing" text-decoration="underline" textLength="309" x="935" y="543.6426">+mapProducto(entity : ProductoEntity) : Producto</text><text fill="#000000" font-family="sans-serif" font-size="14" lengthAdjust="spacing" text-decoration="underline" textLength="356" x="935" y="561.252">+mapProductoEntity(modelo : Producto) : ProductoEntity</text></g><!--MD5=[aa111682fe15d5790f9a79fad23b1c95]
class FacturaProductoEntity--><g id="elem_FacturaProductoEntity"><rect codeLine="184" fill="#F1F1F1" height="224.0938" id="FacturaProductoEntity" rx="2.5" ry="2.5" style="stroke:#181818;stroke-width:0.5;" width="304" x="1974" y="60"/><ellipse cx="2051.25" cy="76" fill="#ADD1B2" rx="11" ry="11" style="stroke:#181818;stroke-width:1.0;"/><path d="M2054.0156,71.875 Q2054.1719,71.6563 2054.3594,71.5469 Q2054.5469,71.4375 2054.7656,71.4375 Q2055.1406,71.4375 2055.375,71.6953 Q2055.6094,71.9531 2055.6094,72.5625 L2055.6094,74.0156 Q2055.6094,74.625 2055.375,74.8906 Q2055.1406,75.1563 2054.7656,75.1563 Q2054.4219,75.1563 2054.2188,74.9531 Q2054.0156,74.7656 2053.9063,74.25 Q2053.8594,73.8906 2053.6719,73.7031 Q2053.3438,73.3281 2052.7344,73.1094 Q2052.125,72.8906 2051.5,72.8906 Q2050.7344,72.8906 2050.1016,73.2188 Q2049.4688,73.5469 2048.9766,74.2969 Q2048.4844,75.0469 2048.4844,76.0781 L2048.4844,77.1719 Q2048.4844,78.4063 2049.375,79.2266 Q2050.2656,80.0469 2051.8594,80.0469 Q2052.7969,80.0469 2053.4531,79.7969 Q2053.8438,79.6406 2054.2656,79.2031 Q2054.5313,78.9375 2054.6797,78.8594 Q2054.8281,78.7813 2055.0313,78.7813 Q2055.3594,78.7813 2055.6172,79.0391 Q2055.875,79.2969 2055.875,79.6406 Q2055.875,79.9844 2055.5313,80.3906 Q2055.0313,80.9688 2054.2344,81.2969 Q2053.1563,81.75 2051.8594,81.75 Q2050.3438,81.75 2049.1406,81.125 Q2048.1563,80.625 2047.4688,79.5547 Q2046.7813,78.4844 2046.7813,77.2031 L2046.7813,76.0469 Q2046.7813,74.7188 2047.3984,73.5703 Q2048.0156,72.4219 2049.1094,71.8047 Q2050.2031,71.1875 2051.4375,71.1875 Q2052.1719,71.1875 2052.8203,71.3516 Q2053.4688,71.5156 2054.0156,71.875 Z " fill="#000000"/><text fill="#000000" font-family="sans-serif" font-size="14" lengthAdjust="spacing" textLength="141" x="2071.75" y="81.7285">FacturaProductoEntity</text><line style="stroke:#181818;stroke-width:0.5;" x1="1975" x2="2277" y1="92" y2="92"/><text fill="#000000" font-family="sans-serif" font-size="14" lengthAdjust="spacing" textLength="145" x="1980" y="110.5332">-factura : FacturaEntity</text><text fill="#000000" font-family="sans-serif" font-size="14" lengthAdjust="spacing" textLength="165" x="1980" y="128.1426">-producto : ProductoEntity</text><text fill="#000000" font-family="sans-serif" font-size="14" lengthAdjust="spacing" textLength="86" x="1980" y="145.752">-cantidad : int</text><line style="stroke:#181818;stroke-width:0.5;" x1="1975" x2="2277" y1="152.8281" y2="152.8281"/><text fill="#000000" font-family="sans-serif" font-size="14" lengthAdjust="spacing" textLength="159" x="1980" y="171.3613">+FacturaProductoEntity()</text><text fill="#000000" font-family="sans-serif" font-size="14" lengthAdjust="spacing" textLength="183" x="1980" y="188.9707">+getFactura() : FacturaEntity</text><text fill="#000000" font-family="sans-serif" font-size="14" lengthAdjust="spacing" textLength="264" x="1980" y="206.5801">+setFactura(factura : FacturaEntity) : void</text><text fill="#000000" font-family="sans-serif" font-size="14" lengthAdjust="spacing" textLength="199" x="1980" y="224.1895">+getProducto() : ProductoEntity</text><text fill="#000000" font-family="sans-serif" font-size="14" lengthAdjust="spacing" textLength="292" x="1980" y="241.7988">+setProducto(producto : ProductoEntity) : void</text><text fill="#000000" font-family="sans-serif" font-size="14" lengthAdjust="spacing" textLength="122" x="1980" y="259.4082">+getCantidad() : int</text><text fill="#000000" font-family="sans-serif" font-size="14" lengthAdjust="spacing" textLength="213" x="1980" y="277.0176">+setCantidad(cantidad : int) : void</text></g><!--MD5=[6596a914e82943f0262dd5dfdcb19451]
class TypesDB--><g id="elem_TypesDB"><rect codeLine="237" fill="#F1F1F1" height="65.6094" id="TypesDB" rx="2.5" ry="2.5" style="stroke:#181818;stroke-width:0.5;" width="90" x="134" y="778"/><ellipse cx="149" cy="794" fill="#EB937F" rx="11" ry="11" style="stroke:#181818;stroke-width:1.0;"/><path d="M147.8594,794.7969 L147.8594,797.2969 L152.1875,797.2969 L152.1875,796.375 Q152.1875,795.7656 152.4297,795.5 Q152.6719,795.2344 153.0469,795.2344 Q153.4219,795.2344 153.6563,795.5 Q153.8906,795.7656 153.8906,796.375 L153.8906,799 L145.8906,799 Q145.2656,799 145.0078,798.7656 Q144.75,798.5313 144.75,798.1406 Q144.75,797.7656 145.0156,797.5313 Q145.2813,797.2969 145.8906,797.2969 L146.1563,797.2969 L146.1563,790.6406 L145.8906,790.6406 Q145.2656,790.6406 145.0078,790.4063 Q144.75,790.1719 144.75,789.7813 Q144.75,789.4063 145.0078,789.1719 Q145.2656,788.9375 145.8906,788.9375 L153.5156,788.9375 L153.5156,791.5313 Q153.5156,792.1406 153.2891,792.3984 Q153.0625,792.6563 152.6719,792.6563 Q152.2969,792.6563 152.0625,792.3984 Q151.8281,792.1406 151.8281,791.5313 L151.8281,790.6406 L147.8594,790.6406 L147.8594,793.0938 L149.3438,793.0938 Q149.3438,792.4375 149.4688,792.25 Q149.7344,791.8438 150.2031,791.8438 Q150.5781,791.8438 150.8125,792.1016 Q151.0469,792.3594 151.0469,792.9688 L151.0469,794.9375 Q151.0469,795.4844 150.9219,795.6719 Q150.6563,796.0625 150.2031,796.0625 Q149.7344,796.0625 149.4688,795.6563 Q149.3438,795.4688 149.3438,794.7969 L147.8594,794.7969 Z " fill="#000000"/><text fill="#000000" font-family="sans-serif" font-size="14" lengthAdjust="spacing" textLength="58" x="163" y="799.7285">TypesDB</text><line style="stroke:#181818;stroke-width:0.5;" x1="135" x2="223" y1="810" y2="810"/><text fill="#000000" font-family="sans-serif" font-size="14" lengthAdjust="spacing" textLength="48" x="140" y="828.5332">MYSQL</text><line style="stroke:#181818;stroke-width:0.5;" x1="135" x2="223" y1="835.6094" y2="835.6094"/></g><!--MD5=[f8f3975bc91b8211495a19ce7ffb16c2]
link RespuestaClienteFacturacion to Cliente--><g id="link_RespuestaClienteFacturacion_Cliente"><path codeLine="33" d="M2671,231.35 C2671,273.59 2671,332.38 2671,385.65 " fill="none" id="RespuestaClienteFacturacion-to-Cliente" style="stroke:#181818;stroke-width:1.0;"/><polygon fill="none" points="2678,385.75,2671,405.75,2664,385.75,2678,385.75" style="stroke:#181818;stroke-width:1.0;"/></g><!--MD5=[e08eef791e2d83ee0adf5b43ceefebe4]
link ProductoDao to IProductoDao--><g id="link_ProductoDao_IProductoDao"><path codeLine="71" d="M3220,266.55 C3220,311.61 3220,365.81 3220,412.25 " fill="none" id="ProductoDao-to-IProductoDao" style="stroke:#181818;stroke-width:1.0;stroke-dasharray:7.0,7.0;"/><polygon fill="none" points="3227,412.3,3220,432.3,3213,412.3,3227,412.3" style="stroke:#181818;stroke-width:1.0;"/></g><!--MD5=[3afbe95045deedc9b153b04e6172901f]
link MySqlDao to DaoFactory--><g id="link_MySqlDao_DaoFactory"><path codeLine="95" d="M3649,337.19 C3649,365.7 3649,394.5 3649,420.45 " fill="none" id="MySqlDao-to-DaoFactory" style="stroke:#181818;stroke-width:1.0;"/><polygon fill="none" points="3656,420.58,3649,440.58,3642,420.58,3656,420.58" style="stroke:#181818;stroke-width:1.0;"/></g><!--MD5=[1edb10d65fbad57abe517869cce8bdbb]
link CSVReaderServiceImpl to CSVReaderService--><g id="link_CSVReaderServiceImpl_CSVReaderService"><path codeLine="122" d="M4100,231.35 C4100,288.36 4100,375.51 4100,438.56 " fill="none" id="CSVReaderServiceImpl-to-CSVReaderService" style="stroke:#181818;stroke-width:1.0;stroke-dasharray:7.0,7.0;"/><polygon fill="none" points="4107,438.93,4100,458.93,4093,438.93,4107,438.93" style="stroke:#181818;stroke-width:1.0;"/></g><!--MD5=[2c80447d11d5a39ea771d36559037bae]
link FacturaDao to IFacturaDao--><g id="link_FacturaDao_IFacturaDao"><path codeLine="131" d="M4580,249.34 C4580,302.73 4580,374.15 4580,429.78 " fill="none" id="FacturaDao-to-IFacturaDao" style="stroke:#181818;stroke-width:1.0;stroke-dasharray:7.0,7.0;"/><polygon fill="none" points="4587,429.88,4580,449.88,4573,429.88,4587,429.88" style="stroke:#181818;stroke-width:1.0;"/></g><!--MD5=[95ec3ead8ec6556db07768e32449f8b0]
link ClienteDao to IClienteDao--><g id="link_ClienteDao_IClienteDao"><path codeLine="142" d="M5043,266.55 C5043,311.61 5043,365.81 5043,412.25 " fill="none" id="ClienteDao-to-IClienteDao" style="stroke:#181818;stroke-width:1.0;stroke-dasharray:7.0,7.0;"/><polygon fill="none" points="5050,412.3,5043,432.3,5036,412.3,5050,412.3" style="stroke:#181818;stroke-width:1.0;"/></g><!--MD5=[5f904865875559e4c677f15e31eb954e]
link ProductoFacturaDao to IProductoFacturaDao--><g id="link_ProductoFacturaDao_IProductoFacturaDao"><path codeLine="169" d="M5622,222.65 C5622,284.44 5622,389.89 5622,456.38 " fill="none" id="ProductoFacturaDao-to-IProductoFacturaDao" style="stroke:#181818;stroke-width:1.0;stroke-dasharray:7.0,7.0;"/><polygon fill="none" points="5629,456.5,5622,476.5,5615,456.5,5629,456.5" style="stroke:#181818;stroke-width:1.0;"/></g><!--MD5=[4bae3fbd2159c1bc9e484c9b3b2ad979]
link ProductoFactura to Producto--><g id="link_ProductoFactura_Producto"><path codeLine="196" d="M1538.11,284.21 C1530.04,320.23 1521.07,360.34 1512.87,396.97 " fill="none" id="ProductoFactura-Producto" style="stroke:#181818;stroke-width:1.0;"/><text fill="#000000" font-family="sans-serif" font-size="13" lengthAdjust="spacing" textLength="58" x="1454.7335" y="386.2199">- producto</text></g><!--MD5=[747b56b214d886acd514a106d7cd8b69]
link ProductoFactura to Factura--><g id="link_ProductoFactura_Factura"><path codeLine="197" d="M1635.42,284.21 C1666.73,332.3 1702.79,387.67 1731.88,432.34 " fill="none" id="ProductoFactura-Factura" style="stroke:#181818;stroke-width:1.0;"/><text fill="#000000" font-family="sans-serif" font-size="13" lengthAdjust="spacing" textLength="47" x="1677.8779" y="421.4974">- factura</text></g><!--MD5=[0345fc0354a562202c09d9b6bc48f267]
link MySqlDao to MySqlDao--><g id="link_MySqlDao_MySqlDao"><path codeLine="198" d="M3812.12,115.14 C3833.12,125 3847,143.96 3847,172 C3847,200.04 3833.12,219 3812.12,228.86 " fill="none" id="MySqlDao-MySqlDao" style="stroke:#181818;stroke-width:1.0;"/><text fill="#000000" font-family="sans-serif" font-size="13" lengthAdjust="spacing" textLength="101" x="3791.8019" y="252.8818">- {static} instance</text></g><!--MD5=[ac7a0d91fb257821662cc2aaef2b7a6a]
link FacturaEntity to ClienteEntity--><g id="link_FacturaEntity_ClienteEntity"><path codeLine="199" d="M2351,603.56 C2351,633.35 2351,667.29 2351,698.93 " fill="none" id="FacturaEntity-ClienteEntity" style="stroke:#181818;stroke-width:1.0;"/><text fill="#000000" font-family="sans-serif" font-size="13" lengthAdjust="spacing" textLength="46" x="2303.3828" y="687.9918">- cliente</text></g><!--MD5=[3b0d13d186570ed2503f27ec63cf4ae7]
link FacturaProductoEntity to FacturaEntity--><g id="link_FacturaProductoEntity_FacturaEntity"><path codeLine="200" d="M2198.74,284.21 C2230.2,332.3 2266.41,387.67 2295.63,432.34 " fill="none" id="FacturaProductoEntity-FacturaEntity" style="stroke:#181818;stroke-width:1.0;"/><text fill="#000000" font-family="sans-serif" font-size="13" lengthAdjust="spacing" textLength="47" x="2241.6056" y="421.4974">- factura</text></g><!--MD5=[fb43cf4f3435d38d2d6ab43939177606]
link FacturaProductoEntity to ProductoEntity--><g id="link_FacturaProductoEntity_ProductoEntity"><path codeLine="201" d="M2104.34,284.21 C2096.75,323.18 2088.23,366.92 2080.64,405.88 " fill="none" id="FacturaProductoEntity-ProductoEntity" style="stroke:#181818;stroke-width:1.0;"/><text fill="#000000" font-family="sans-serif" font-size="13" lengthAdjust="spacing" textLength="58" x="2022.1455" y="395.3132">- producto</text></g><!--MD5=[205b2b37bb6be1d4fdfea07017229798]
@startuml
skinparam classAttributeIconSize 0
class Producto{
- id : int
- nombre : String
- valor : float
+ Producto(id : int, nombre : String, valor : float)
+ getId() : int
+ setId(id : int) : void
+ getNombre() : String
+ setNombre(nombre : String) : void
+ getValor() : float
+ setValor(valor : float) : void
+ toString() : String
}
class ProductoEntity{
- idProducto : int
- nombre : String
- valor : Float
+ ProductoEntity()
+ getIdProducto() : int
+ setIdProducto(idProducto : int) : void
+ getNombre() : String
+ setNombre(nombre : String) : void
+ getValor() : Float
+ setValor(valor : Float) : void
}
class RespuestaClienteFacturacion{
- recaudacion : float
+ RespuestaClienteFacturacion(id : int, nombre : String, email : String, recaudacion : Float)
+ getRecaudacion() : float
+ setRecaudacion(recaudacion : float) : void
}
RespuestaClienteFacturacion - -|> Cliente
class FacturaMapper{
+ FacturaMapper()
+ {static} mapFactura(entity : FacturaEntity) : Factura
+ {static} mapFacturaEntity(modelo : Factura) : FacturaEntity
}
class DataBase{
}
class main{
+ {static} main(args : String[]) : void
}
class ClienteMapper{
+ ClienteMapper()
+ {static} mapCliente(entity : ClienteEntity) : Cliente
+ {static} mapClienteEntity(modelo : Cliente) : ClienteEntity
}
class ProductoFactura{
- cantidad : int
- producto : Producto
- factura : Factura
+ ProductoFactura(cantidad : int, producto : Producto, factura : Factura)
+ getCantidad() : int
+ setCantidad(cantidad : int) : void
+ getProducto() : Producto
+ setProducto(producto : Producto) : void
+ getFactura() : Factura
+ setFactura(factura : Factura) : void
}
class ProductoDao{
+ createTable() : void
+ getProducto(id : int) : Producto
+ getProductos() : ArrayList<Producto>
+ createProducts(productosACrear : List<Producto>) : List<Producto>
+ createProduct(producto : Producto) : Producto
+ updateProduct(producto : Producto) : Producto
+ getProductoMayorRecaudacion() : Producto
- createProduct(producto : Producto, conn : Connection) : Producto
}
ProductoDao ..|> IProductoDao
class FacturaProductoMapper{
+ FacturaProductoMapper()
+ {static} mapProductoFactura(entity : FacturaProductoEntity) : ProductoFactura
+ {static} mapProductoFacturaEntity(modelo : ProductoFactura) : FacturaProductoEntity
}
class MySqlDao{
- {static} Driver : String
- {static} URL : String
- {static} USER : String
- {static} PASSWORD : String
- {static} instance : MySqlDao
- {static} connection : Connection
+ getProductoDao() : ProductoDao
+ getFacturaDao() : FacturaDao
+ getClienteDao() : ClienteDao
+ getProductoFacturaDao() : ProductoFacturaDao
- {static} createConnection() : Connection
+ {static} getConnection() : Connection
+ {static} getInstance() : DaoFactory
+ {static} commit(connection : Connection) : void
+ {static} rollback(connection : Connection) : void
+ closeConnection() : void
}
MySqlDao - -|> DaoFactory
class Cliente{
- id : int
- nombre : String
- email : String
+ Cliente(id : int, nombre : String, email : String)
+ getId() : int
+ setId(id : int) : void
+ getNombre() : String
+ setNombre(nombre : String) : void
+ getEmail() : String
+ setEmail(email : String) : void
}
class DaoFactory{
+ {static} getDaoFactory(database : TypesDB) : DaoFactory
+ {abstract} closeConnection() : void
+ {abstract} getProductoDao() : ProductoDao
+ {abstract} getFacturaDao() : FacturaDao
+ {abstract} getClienteDao() : ClienteDao
+ {abstract} getProductoFacturaDao() : ProductoFacturaDao
}
class CSVReaderServiceImpl{
+ readClientsFromCSV(filePath : String) : List<Cliente>
+ readFactureFromCSV(filePath : String) : List<Factura>
+ readProductsFromCSV(filePath : String) : List<Producto>
+ readProductFactureFromCSV(filePath : String) : List<ProductoFactura>
}
CSVReaderServiceImpl ..|> CSVReaderService
class FacturaDao{
+ createTable() : void
+ getFactura(id : int) : Factura
+ getFactura() : ArrayList<Factura>
+ createFacturas(facturasACrear : List<Factura>) : List<Factura>
+ createFactura(factura : Factura) : Factura
- createFactura(factura : Factura, conn : Connection) : Factura
}
FacturaDao ..|> IFacturaDao
class ClienteDao{
+ createTable() : void
+ getCliente(id : int) : Cliente
+ getClientes() : ArrayList<Cliente>
+ getClientesPorFacturacion() : List<RespuestaClienteFacturacion>
+ createClientes(clientesACrear : List<Cliente>) : List<Cliente>
+ createCliente(cliente : Cliente) : Cliente
+ updateCliente(cliente : Cliente) : Cliente
- createCliente(cliente : Cliente, conn : Connection) : Cliente
}
ClienteDao ..|> IClienteDao
class ClienteEntity{
- idCliente : int
- nombre : String
- email : String
+ ClienteEntity()
+ getIdCliente() : int
+ setIdCliente(idCliente : int) : void
+ getNombre() : String
+ setNombre(nombre : String) : void
+ getEmail() : String
+ setEmail(email : String) : void
}
class FacturaEntity{
- idFactura : int
- cliente : ClienteEntity
+ FacturaEntity()
+ getIdFactura() : int
+ setIdFactura(idFactura : int) : void
+ getCliente() : ClienteEntity
+ setCliente(cliente : ClienteEntity) : void
}
class ProductoFacturaDao{
+ createTable() : void
+ createProductoFacturas(productosFacturaACrear : List<ProductoFactura>) : List<ProductoFactura>
- createProductoFactura(productoFactura : ProductoFactura, conn : Connection) : ProductoFactura
}
ProductoFacturaDao ..|> IProductoFacturaDao
class Factura{
- id : int
- idCliente : int
+ Factura(id : int, idCliente : int)
+ getId() : int
+ setId(id : int) : void
+ getIdCliente() : int
+ setIdCliente(idCliente : int) : void
}
class ProductoMapper{
+ ProductoMapper()
+ {static} mapProducto(entity : ProductoEntity) : Producto
+ {static} mapProductoEntity(modelo : Producto) : ProductoEntity
}
class FacturaProductoEntity{
- factura : FacturaEntity
- producto : ProductoEntity
- cantidad : int
+ FacturaProductoEntity()
+ getFactura() : FacturaEntity
+ setFactura(factura : FacturaEntity) : void
+ getProducto() : ProductoEntity
+ setProducto(producto : ProductoEntity) : void
+ getCantidad() : int
+ setCantidad(cantidad : int) : void
}
ProductoFactura- -"- producto" Producto
ProductoFactura- -"- factura" Factura
MySqlDao- -"- {static} instance" MySqlDao
FacturaEntity- -"- cliente" ClienteEntity
FacturaProductoEntity- -"- factura" FacturaEntity
FacturaProductoEntity- -"- producto" ProductoEntity
interface IFacturaDao{
+ createTable() : void
+ getFactura(id : int) : Factura
+ getFactura() : ArrayList<Factura>
+ createFactura(factura : Factura) : Factura
+ createFacturas(facturasACrear : List<Factura>) : List<Factura>
}
interface CSVReaderService{
+ readClientsFromCSV(filePath : String) : List<Cliente>
+ readFactureFromCSV(filePath : String) : List<Factura>
+ readProductsFromCSV(filePath : String) : List<Producto>
+ readProductFactureFromCSV(filePath : String) : List<ProductoFactura>
}
interface IClienteDao{
+ createTable() : void
+ getCliente(id : int) : Cliente
+ getClientes() : ArrayList<Cliente>
+ getClientesPorFacturacion() : List<RespuestaClienteFacturacion>
+ createCliente(cliente : Cliente) : Cliente
+ createClientes(clientes : List<Cliente>) : List<Cliente>
+ updateCliente(cliente : Cliente) : Cliente
}
interface IProductoDao{
+ createTable() : void
+ getProducto(id : int) : Producto
+ getProductos() : ArrayList<Producto>
+ createProduct(producto : Producto) : Producto
+ createProducts(productosACrear : List<Producto>) : List<Producto>
+ updateProduct(producto : Producto) : Producto
+ getProductoMayorRecaudacion() : Producto
}
interface IProductoFacturaDao{
+ createTable() : void
+ createProductoFacturas(productosFacturaACrear : List<ProductoFactura>) : List<ProductoFactura>
}
enum TypesDB{
MYSQL
}
@enduml

PlantUML version 1.2022.7(Mon Aug 22 14:01:30 ART 2022)
(GPL source distribution)
Java Runtime: Java(TM) SE Runtime Environment
JVM: Java HotSpot(TM) 64-Bit Server VM
Default Encoding: Cp1252
Language: es
Country: AR
--></g></svg>